<?xml version="1.0" encoding="utf-8"?>
<!-- Generator: Adobe Illustrator 17.0.0, SVG Export Plug-In . SVG Version: 6.00 Build 0)  -->
<!DOCTYPE svg PUBLIC "-//W3C//DTD SVG 1.1//EN" "http://www.w3.org/Graphics/SVG/1.1/DTD/svg11.dtd">
<svg version="1.1" id="Layer_1" xmlns="http://www.w3.org/2000/svg" xmlns:xlink="http://www.w3.org/1999/xlink" x="0px" y="0px"
	 width="25.599px" height="19.843px" viewBox="760.813 1952.972 25.599 19.843"
	 enable-background="new 760.813 1952.972 25.599 19.843" xml:space="preserve">
<g>
	<g>
		<defs>
			<path id="SVGID_1_" d="M761.108,1971.34c0,0-2.22-9.258,5.527-15.456c8.312-6.653,19.777,0.175,19.777,0.175
				s-0.509,9.005-7.918,13.487C768.429,1975.644,761.108,1971.34,761.108,1971.34z"/>
		</defs>
		<clipPath id="SVGID_2_">
			<use xlink:href="#SVGID_1_"  overflow="visible"/>
		</clipPath>
		<g clip-path="url(#SVGID_2_)">
			<rect x="756.539" y="1952.925" fill="#FFFFFF" width="32.355" height="20.01"/>
			<path fill="#FFF7C8" d="M756.539,1954.062"/>
			<path fill="#E42328" d="M759.977,1957.61"/>
			<polygon fill="#A4A5A9" points="756.539,1954.821 756.539,1960.174 765.637,1960.174 			"/>
			<polygon fill="#3A3C41" points="766.949,1960.174 768.812,1960.174 756.539,1952.925 756.539,1954.062 			"/>
			<polygon fill="#A4A5A9" points="760.129,1952.925 770.516,1959.319 770.516,1952.925 			"/>
			<polygon fill="#A4A5A9" points="788.898,1970.17 788.898,1964.864 779.896,1964.864 			"/>
			<polygon fill="#3A3C41" points="778.583,1964.864 776.721,1964.864 788.898,1972.077 788.898,1970.927 			"/>
			<polygon fill="#A4A5A9" points="786.852,1973.02 775.015,1965.766 775.015,1973.066 			"/>
			<polygon fill="#A4A5A9" points="788.898,1954.869 788.898,1960.174 779.896,1960.168 			"/>
			<polygon fill="#3A3C41" points="775.019,1960.174 777.13,1960.174 788.898,1952.925 786.761,1952.925 			"/>
			<polygon fill="#A4A5A9" points="785.315,1952.925 775.019,1959.273 775.019,1952.925 			"/>
			<polygon fill="#A4A5A9" points="756.541,1970.216 756.541,1964.862 765.638,1964.862 			"/>
			<polygon fill="#3A3C41" points="770.513,1964.861 768.398,1964.861 756.533,1972.166 756.499,1973.542 			"/>
			<polygon fill="#A4A5A9" points="758.797,1972.972 770.513,1965.762 770.513,1973.011 			"/>
			<rect x="771.382" y="1952.925" fill="#3A3C41" width="2.737" height="20.089"/>
			<rect x="756.539" y="1961.003" fill="#3A3C41" width="32.362" height="3.096"/>
		</g>
	</g>
</g>
</svg>
