<?xml version="1.0" encoding="utf-8"?>
<!-- Generator: Adobe Illustrator 17.0.0, SVG Export Plug-In . SVG Version: 6.00 Build 0)  -->
<!DOCTYPE svg PUBLIC "-//W3C//DTD SVG 1.1//EN" "http://www.w3.org/Graphics/SVG/1.1/DTD/svg11.dtd">
<svg version="1.1" id="Layer_1" xmlns="http://www.w3.org/2000/svg" xmlns:xlink="http://www.w3.org/1999/xlink" x="0px" y="0px"
	 width="60.93px" height="60.929px" viewBox="0 0 60.93 60.929" enable-background="new 0 0 60.93 60.929" xml:space="preserve">
<g>
	<path fill="#3D5A98" d="M57.567,60.929c1.855,0,3.362-1.506,3.362-3.361V3.361C60.93,1.505,59.423,0,57.567,0H3.364
		C1.507,0,0,1.505,0,3.361v54.206c0,1.855,1.507,3.361,3.364,3.361H57.567z"/>
	<path fill="#FFFFFF" d="M42.041,60.929V37.333h7.919l1.188-9.195h-9.106v-5.871c0-2.664,0.739-4.477,4.555-4.477l4.871-0.001V9.564
		c-0.842-0.113-3.731-0.362-7.095-0.362c-7.02,0-11.828,4.286-11.828,12.154v6.782h-7.938v9.195h7.938v23.596H42.041z"/>
</g>
</svg>
