<?xml version="1.0" encoding="utf-8"?>
<!-- Generator: Adobe Illustrator 17.0.0, SVG Export Plug-In . SVG Version: 6.00 Build 0)  -->
<!DOCTYPE svg PUBLIC "-//W3C//DTD SVG 1.1//EN" "http://www.w3.org/Graphics/SVG/1.1/DTD/svg11.dtd">
<svg version="1.1" id="Layer_1" xmlns="http://www.w3.org/2000/svg" xmlns:xlink="http://www.w3.org/1999/xlink" x="0px" y="0px"
	 width="19.842px" height="19.843px" viewBox="762.261 1951.828 19.842 19.843"
	 enable-background="new 762.261 1951.828 19.842 19.843" xml:space="preserve">
<g>
	<path fill="#A5A7AA" d="M781.008,1971.67c0.604,0,1.095-0.49,1.095-1.095v-17.652c0-0.604-0.49-1.095-1.095-1.095h-17.652
		c-0.605,0-1.095,0.49-1.095,1.095v17.652c0,0.604,0.49,1.095,1.095,1.095H781.008z"/>
	<path fill="#FFFFFF" d="M775.951,1971.67v-7.684h2.578l0.387-2.995h-2.965v-1.912c0-0.868,0.241-1.458,1.483-1.458h1.587v-2.678
		c-0.274-0.037-1.216-0.118-2.311-0.118c-2.286,0-3.852,1.396-3.852,3.958v2.209h-2.585v2.995h2.585v7.684L775.951,1971.67
		L775.951,1971.67z"/>
</g>
</svg>
