<?xml version="1.0" encoding="utf-8"?>
<!-- Generator: Adobe Illustrator 17.0.0, SVG Export Plug-In . SVG Version: 6.00 Build 0)  -->
<!DOCTYPE svg PUBLIC "-//W3C//DTD SVG 1.1//EN" "http://www.w3.org/Graphics/SVG/1.1/DTD/svg11.dtd">
<svg version="1.1" id="Layer_1" xmlns="http://www.w3.org/2000/svg" xmlns:xlink="http://www.w3.org/1999/xlink" x="0px" y="0px"
	 width="25.597px" height="19.843px" viewBox="760.198 1952.971 25.597 19.843"
	 enable-background="new 760.198 1952.971 25.597 19.843" xml:space="preserve">
<g>
	<g>
		<defs>
			<path id="SVGID_1_" d="M760.493,1971.34c0,0-2.221-9.257,5.526-15.456c8.312-6.653,19.776,0.174,19.776,0.174
				s-0.507,9.006-7.917,13.487C767.813,1975.644,760.493,1971.34,760.493,1971.34z"/>
		</defs>
		<clipPath id="SVGID_2_">
			<use xlink:href="#SVGID_1_"  overflow="visible"/>
		</clipPath>
		<g clip-path="url(#SVGID_2_)">
			<rect x="753.595" y="1960.131" fill="#FFFFFF" width="37.053" height="6.175"/>
			<polyline fill="#3A3C41" points="753.677,1952.973 790.729,1952.973 790.729,1960.171 753.677,1960.171 753.677,1952.973 			"/>
			<polyline fill="#A4A5A9" points="753.667,1966.313 790.721,1966.313 790.721,1973.511 753.667,1973.511 753.667,1966.313 			"/>
			<g>
				<path fill="#FFFFFF" d="M768.542,1960.051c1.148-0.408,2.423-0.628,3.668-0.632c1.245-0.004,2.515,0.194,3.769,0.643
					l0.935-1.884l-0.657-1.146l-1.182,0.482l-0.827-0.897l-1.048,0.631l-0.983-0.752l-0.928,0.741l-1.08-0.625l-0.788,0.937
					l-1.182-0.504l-0.632,1.133L768.542,1960.051"/>
				<path fill="#6E6F71" d="M768.542,1960.051l0.004,0.016c1.148-0.407,2.422-0.628,3.664-0.632h0.028
					c1.235,0,2.495,0.196,3.733,0.642l0.018,0.003l0.943-1.904l-0.669-1.164l-1.183,0.484l-0.828-0.9l-1.051,0.633l-0.984-0.752
					l-0.93,0.742l-1.08-0.627l-0.788,0.939l-1.188-0.506l-0.643,1.153l0.944,1.893l0.013-0.004L768.542,1960.051l0.013-0.006
					l-0.93-1.867l0.622-1.114l1.18,0.505l0.788-0.935l1.079,0.624l0.924-0.74l0.983,0.751l1.048-0.632l0.824,0.898l1.178-0.48
					l0.645,1.124l-0.93,1.877l0.014,0.007l0.006-0.015c-1.246-0.447-2.509-0.644-3.747-0.644h-0.028
					c-1.248,0.002-2.523,0.224-3.672,0.633L768.542,1960.051l0.013-0.006L768.542,1960.051"/>
				<path fill="#A4A5A9" d="M774.529,1959.53l0.534-1.892l1.147-0.465l0.602,1.015l-0.864,1.771
					C775.449,1959.759,775.183,1959.674,774.529,1959.53"/>
				<path fill="#A4A5A9" d="M774.529,1959.53l0.013,0.004l0.534-1.884l1.128-0.458l0.592,0.995l-0.865,1.765l0.017,0.007
					l0.004-0.015c-0.5-0.199-0.768-0.284-1.419-0.43L774.529,1959.53l0.013,0.004L774.529,1959.53l-0.003,0.015
					c0.652,0.146,0.918,0.229,1.416,0.428l0.013,0.005l0.877-1.793l-0.615-1.032l-1.167,0.475l-0.54,1.914l0.017,0.003
					L774.529,1959.53"/>
				<path fill="#A4A5A9" d="M771.513,1959.325l-0.178-1.96l0.909-0.722l0.95,0.722l-0.168,1.961
					C772.5,1959.298,772.13,1959.299,771.513,1959.325"/>
				<path fill="#A4A5A9" d="M771.513,1959.325l0.016-0.002l-0.18-1.949l0.896-0.71l0.933,0.708l-0.166,1.954l0.016,0.001v-0.014
					c-0.264-0.014-0.492-0.021-0.729-0.021c-0.235,0-0.482,0.007-0.785,0.018L771.513,1959.325l0.017-0.002L771.513,1959.325
					l0.001,0.015c0.307-0.012,0.552-0.019,0.784-0.019c0.236,0,0.461,0.007,0.727,0.019l0.015,0.002l0.171-1.986l-0.966-0.734
					l-0.929,0.735l0.184,1.982h0.015L771.513,1959.325"/>
				<path fill="#A4A5A9" d="M768.586,1959.957l-0.848-1.794l0.567-0.991l1.172,0.512l0.5,1.851
					C769.44,1959.646,769.154,1959.736,768.586,1959.957"/>
				<path fill="#A4A5A9" d="M768.595,1959.938l-0.839-1.774l0.554-0.97l1.159,0.503l0.487,1.828
					C769.435,1959.633,769.148,1959.723,768.595,1959.938 M768.306,1957.172l-0.567,0.991l0.848,1.794
					c0.568-0.221,0.855-0.311,1.391-0.422l-0.235-0.88l-0.264-0.971L768.306,1957.172"/>
				<path fill="#FFFFFF" d="M768.323,1958.964c0.267,0.055,0.457,0.055,0.696-0.01c0.286-0.118,0.388-0.274,0.48-0.401
					c0.044,0.267-0.002,0.51-0.328,0.681C768.876,1959.369,768.483,1959.284,768.323,1958.964z"/>
				<path fill="#FFFFFF" d="M768.323,1958.964l-0.003,0.016c0.126,0.025,0.241,0.04,0.351,0.04c0.116,0,0.227-0.015,0.354-0.049
					h0.001v-0.002c0.288-0.118,0.395-0.28,0.486-0.407l-0.013-0.008l-0.015,0.001c0.008,0.054,0.013,0.105,0.013,0.155
					c0,0.202-0.076,0.376-0.333,0.511l0.007,0.014l-0.007-0.014c-0.089,0.04-0.182,0.061-0.28,0.061
					c-0.221,0-0.44-0.106-0.549-0.323L768.323,1958.964l-0.003,0.016L768.323,1958.964l-0.015,0.007
					c0.114,0.229,0.346,0.342,0.575,0.341c0.102,0,0.203-0.021,0.293-0.063l0,0l0,0c0.267-0.138,0.354-0.329,0.353-0.538
					c0-0.051-0.006-0.105-0.014-0.16l-0.006-0.037l-0.025,0.031c-0.091,0.126-0.189,0.28-0.473,0.396l0.007,0.015l-0.003-0.015
					c-0.123,0.032-0.232,0.048-0.346,0.048c-0.105,0-0.219-0.013-0.348-0.039l-0.03-0.008l0.016,0.03L768.323,1958.964z"/>
				<polyline fill="#FFFFFF" points="772.649,1957.458 772.578,1957.507 772.573,1957.563 772.538,1957.573 772.504,1957.521 
					772.442,1957.498 772.407,1957.497 772.407,1957.536 772.472,1957.621 772.466,1957.67 772.47,1957.668 772.518,1957.674 
					772.492,1957.701 772.492,1957.723 772.498,1957.743 772.517,1957.77 772.483,1957.774 772.483,1957.848 772.504,1957.86 
					772.51,1957.89 772.545,1957.906 772.548,1957.937 772.587,1957.958 772.601,1958.009 772.626,1958.016 772.63,1958.061 
					772.663,1958.095 772.722,1958.093 772.752,1958.055 772.771,1957.992 772.804,1957.961 772.807,1957.894 772.859,1957.886 
					772.861,1957.765 772.841,1957.753 772.841,1957.712 772.797,1957.645 772.841,1957.638 772.854,1957.627 772.894,1957.648 
					772.915,1957.74 772.988,1957.808 772.988,1957.836 772.915,1957.846 772.86,1957.917 772.86,1958.026 772.89,1958.079 
					772.867,1958.079 772.839,1958.033 772.767,1958.07 772.783,1958.133 772.812,1958.161 772.763,1958.167 772.732,1958.122 
					772.695,1958.136 772.685,1958.173 772.668,1958.146 772.633,1958.147 772.614,1958.173 772.545,1958.174 772.54,1958.16 
					772.555,1958.147 772.544,1958.05 772.485,1958.054 772.479,1958.102 772.455,1958.092 772.451,1957.972 772.425,1957.949 
					772.411,1957.884 772.339,1957.888 772.313,1957.869 772.36,1957.795 772.417,1957.778 772.418,1957.688 772.458,1957.672 
					772.414,1957.683 772.416,1957.775 772.354,1957.789 772.309,1957.871 772.335,1957.895 772.315,1957.955 772.333,1957.978 
					772.35,1958.03 772.394,1958.034 772.403,1958.093 772.472,1958.103 772.532,1958.147 772.534,1958.175 772.607,1958.176 
					772.655,1958.191 772.824,1958.173 772.846,1958.139 772.848,1958.091 772.938,1958.087 772.948,1958.011 772.995,1958.011 
					772.99,1957.927 773.03,1957.931 773.018,1957.89 772.992,1957.855 772.99,1957.805 772.916,1957.733 772.903,1957.645 
					772.856,1957.623 772.854,1957.562 772.903,1957.493 772.901,1957.464 772.854,1957.463 772.817,1957.493 772.771,1957.497 
					772.771,1957.518 772.783,1957.559 772.729,1957.559 772.726,1957.497 772.649,1957.458 				"/>
				<polyline fill="#554C21" points="772.309,1957.871 772.309,1957.871 772.335,1957.895 772.309,1957.871 				"/>
				<polyline fill="#554C21" points="772.335,1957.895 772.315,1957.955 772.335,1957.895 				"/>
				<line fill="none" x1="772.335" y1="1957.895" x2="772.335" y2="1957.895"/>
				<polyline fill="#554C21" points="772.99,1957.927 772.995,1958.011 772.99,1957.927 				"/>
				<line fill="none" x1="772.99" y1="1957.927" x2="772.99" y2="1957.927"/>
				<polyline fill="#554C21" points="772.99,1957.927 772.99,1957.927 773.03,1957.931 772.99,1957.927 				"/>
				<polyline fill="#554C21" points="772.988,1957.927 772.964,1957.893 772.964,1957.893 772.988,1957.927 				"/>
				<path fill="#3A3C41" d="M773.038,1959.323l0.17-1.965l1.041-0.597l0.804,0.872l-0.536,1.892
					C773.997,1959.419,773.7,1959.373,773.038,1959.323"/>
				<g>
					<g>
						<defs>
							<polyline id="SVGID_3_" points="774.25,1956.742 773.197,1957.347 773.21,1957.357 773.21,1957.358 774.249,1956.761 
								775.049,1957.63 775.05,1957.627 775.064,1957.62 774.25,1956.742 							"/>
						</defs>
						<clipPath id="SVGID_4_">
							<use xlink:href="#SVGID_3_"  overflow="visible"/>
						</clipPath>
						<rect x="773.039" y="1956.742" clip-path="url(#SVGID_4_)" fill="#292D67" width="2.024" height="2.797"/>
					</g>
					<path fill="#3A3C41" d="M773.058,1959.309l0.167-1.938l1.021-0.59l0.79,0.857l-0.533,1.87
						C774.001,1959.403,773.7,1959.359,773.058,1959.309 M774.249,1956.761l-1.039,0.597h-0.002l-0.17,1.965h0.005
						c0.657,0.05,0.954,0.096,1.471,0.201c0.001,0,0.001,0.001,0.001,0.001l0.131-0.462l0.227-0.796l0.004-0.013v0.001l0.177-0.622
						l-0.004-0.002L774.249,1956.761"/>
					<polyline fill="#554C21" points="772.54,1958.769 772.526,1958.72 772.526,1958.72 772.54,1958.769 					"/>
					<polyline fill="#554C21" points="772.581,1958.688 772.555,1958.655 772.555,1958.655 772.581,1958.688 					"/>
					<path fill="#554C21" d="M772.22,1958.769l0.038-0.02l-0.001-0.042l-0.037-0.007l-0.014-0.015l0.04,0.009l0.052-0.005
						l0.016-0.008c-0.007,0.018-0.014,0.016-0.014,0.016l-0.027,0.014v0.041l0.084,0.01l-0.003,0.018l-0.088-0.02l-0.054,0.033
						L772.22,1958.769z"/>
					<path fill="#554C21" d="M772.22,1958.769L772.22,1958.769l0.038-0.02l-0.001-0.042l-0.037-0.007l-0.014-0.015l0.04,0.009
						l0.052-0.005l0.016-0.008c-0.006,0.014-0.013,0.016-0.014,0.016l0,0l-0.027,0.014v0.041l0.084,0.01l-0.003,0.018l-0.088-0.02
						l-0.054,0.033L772.22,1958.769L772.22,1958.769L772.22,1958.769l-0.008,0.023l0.054-0.033l0.088,0.02l0.003-0.018l-0.084-0.01
						v-0.041l0.027-0.014l0,0c0.001,0,0.008-0.002,0.014-0.016l-0.016,0.008l-0.052,0.005l-0.04-0.009l0.014,0.015l0.037,0.007
						l0.001,0.042L772.22,1958.769L772.22,1958.769z"/>
					<polygon fill="#7A6D3B" points="772.342,1958.543 772.342,1958.543 772.36,1958.559 772.342,1958.574 772.326,1958.559 					
						"/>
					<path fill="#554C21" d="M772.093,1958.44c0.052-0.021,0.09-0.038,0.154-0.043c0.017-0.001,0.027-0.003,0.044-0.003
						c0.042,0,0.079,0.008,0.12,0.016l0,0c-0.041-0.007-0.078-0.016-0.12-0.016c-0.017,0-0.027,0.001-0.044,0.003
						C772.183,1958.402,772.144,1958.419,772.093,1958.44L772.093,1958.44z"/>
					<polygon fill="#554C21" points="772.121,1958.331 772.079,1958.331 772.018,1958.265 772.053,1958.27 772.093,1958.287 					
						"/>
					<polygon fill="#554C21" points="772.121,1958.331 772.121,1958.331 772.079,1958.331 772.018,1958.265 772.053,1958.27 
						772.093,1958.287 772.121,1958.331 772.121,1958.331 772.121,1958.331 772.093,1958.287 772.053,1958.27 772.018,1958.265 
						772.079,1958.331 					"/>
					<polygon fill="#554C21" points="772.382,1958.305 772.477,1958.232 772.448,1958.228 772.411,1958.26 772.367,1958.267 					
						"/>
					<polygon fill="#554C21" points="772.382,1958.305 772.382,1958.305 772.477,1958.232 772.448,1958.228 772.411,1958.26 
						772.367,1958.267 772.382,1958.305 772.382,1958.305 772.382,1958.305 772.367,1958.267 772.411,1958.26 772.448,1958.228 
						772.477,1958.232 					"/>
					<polygon fill="#554C21" points="772.325,1958.32 772.171,1958.324 772.175,1958.307 772.229,1958.303 772.232,1958.28 
						772.252,1958.28 772.266,1958.301 772.319,1958.311 					"/>
					<polygon fill="#554C21" points="772.325,1958.32 772.325,1958.32 772.171,1958.324 772.175,1958.307 772.229,1958.303 
						772.232,1958.28 772.252,1958.28 772.266,1958.301 772.319,1958.311 772.325,1958.32 772.325,1958.32 772.325,1958.32 
						772.319,1958.311 772.266,1958.301 772.252,1958.28 772.232,1958.28 772.229,1958.303 772.175,1958.307 772.171,1958.324 					
						"/>
					<polygon fill="#554C21" points="772.313,1958.262 772.264,1958.262 772.259,1958.233 					"/>
					<polygon fill="#554C21" points="772.313,1958.262 772.313,1958.262 772.264,1958.262 772.259,1958.233 772.313,1958.262 
						772.313,1958.262 772.313,1958.262 772.259,1958.233 772.264,1958.262 					"/>
					<polygon fill="#554C21" points="772.229,1958.235 772.224,1958.264 772.171,1958.272 					"/>
					<polygon fill="#554C21" points="772.229,1958.235 772.229,1958.235 772.224,1958.264 772.171,1958.272 772.229,1958.235 
						772.229,1958.235 772.229,1958.235 772.171,1958.272 772.224,1958.264 					"/>
					<polygon fill="#554C21" points="771.935,1958.759 771.963,1958.693 771.938,1958.646 771.911,1958.715 					"/>
					<polygon fill="#554C21" points="771.935,1958.759 771.935,1958.759 771.963,1958.693 771.938,1958.646 771.911,1958.715 
						771.935,1958.759 771.935,1958.759 771.935,1958.759 771.911,1958.715 771.938,1958.646 771.963,1958.693 					"/>
					<polygon fill="#554C21" points="771.986,1958.795 772.019,1958.716 771.959,1958.779 					"/>
					<polygon fill="#554C21" points="771.986,1958.795 771.986,1958.795 772.019,1958.716 771.959,1958.779 771.986,1958.795 
						771.986,1958.795 771.986,1958.795 771.959,1958.779 772.019,1958.716 					"/>
					<path fill="#A4A5A9" d="M773.552,1957.8l0.204,0.135c0.039-0.032,0.121-0.011,0.15-0.003c0.056,0.013,0.096,0.048,0.146,0.057
						c0.089,0.022,0.197,0.038,0.279,0.029c0.081-0.009,0.15-0.052,0.21-0.083v-0.02h-0.04c-0.066,0.023-0.157,0.026-0.227,0.016
						c-0.072-0.01-0.089-0.042-0.192-0.071l-0.01-0.019c0.128,0.005,0.15,0.001,0.208-0.022c0.051-0.012,0.071-0.042,0.104-0.063
						l-0.001-0.024l-0.039-0.002c-0.049,0.034-0.081,0.04-0.155,0.033c-0.069-0.006-0.131-0.046-0.178-0.046
						c-0.049,0-0.045-0.024-0.092-0.025c-0.076-0.006-0.158,0.002-0.225,0.019C773.606,1957.737,773.594,1957.757,773.552,1957.8z"
						/>
					<path d="M773.552,1957.8L773.552,1957.8l0.204,0.135c0.015-0.014,0.041-0.018,0.063-0.018c0.034,0,0.068,0.01,0.087,0.015
						c0.056,0.014,0.096,0.048,0.146,0.057c0.072,0.018,0.155,0.032,0.229,0.032c0.017,0,0.034,0,0.05-0.003
						c0.081-0.009,0.15-0.052,0.21-0.083v-0.02h-0.04c-0.042,0.014-0.095,0.022-0.144,0.022c-0.032,0-0.056-0.003-0.083-0.006
						c-0.072-0.009-0.089-0.041-0.192-0.071l-0.01-0.019c0.037,0.001,0.065,0.001,0.087,0.001c0.057,0,0.082-0.006,0.121-0.023
						c0.051-0.012,0.071-0.042,0.104-0.063l-0.001-0.024l-0.039-0.002c-0.039,0.026-0.062,0.035-0.108,0.035
						c-0.014,0-0.029-0.001-0.047-0.002c-0.069-0.006-0.131-0.046-0.178-0.047l0,0c-0.049,0-0.045-0.023-0.092-0.024
						c-0.018-0.002-0.033-0.003-0.048-0.003c-0.062,0-0.122,0.01-0.178,0.022C773.606,1957.738,773.593,1957.758,773.552,1957.8
						L773.552,1957.8L773.552,1957.8c0.042-0.043,0.055-0.063,0.142-0.09c0.056-0.012,0.116-0.022,0.178-0.022
						c0.015,0,0.029,0.001,0.048,0.003c0.047,0.001,0.043,0.025,0.092,0.025l0,0c0.047,0,0.108,0.04,0.178,0.046
						c0.018,0.001,0.033,0.002,0.047,0.002c0.046,0,0.069-0.008,0.108-0.035l0.039,0.002l0.001,0.024
						c-0.032,0.021-0.053,0.051-0.104,0.063c-0.039,0.017-0.064,0.023-0.121,0.023c-0.021,0-0.05,0-0.087-0.001l0.01,0.019
						c0.104,0.03,0.12,0.062,0.192,0.071c0.027,0.004,0.051,0.006,0.083,0.006c0.049,0,0.102-0.008,0.144-0.022h0.04v0.02
						c-0.06,0.031-0.129,0.074-0.21,0.083c-0.016,0.002-0.033,0.002-0.05,0.002c-0.074,0-0.157-0.014-0.229-0.032
						c-0.05-0.01-0.09-0.043-0.146-0.057c-0.019-0.006-0.053-0.015-0.087-0.015c-0.022,0-0.049,0.004-0.063,0.018l-0.204-0.136
						L773.552,1957.8L773.552,1957.8z"/>
					<path fill="#DCE9F7" d="M773.539,1957.809c-0.044,0.013-0.062,0.039-0.085,0.062l-0.131-0.066
						c-0.023,0.017-0.027,0.042-0.018,0.068c0.009,0.025,0.05,0.066,0.081,0.086c-0.008,0.035-0.018,0.062-0.032,0.093
						c-0.015,0.034-0.044,0.078-0.044,0.094c-0.003,0.016-0.01,0.05,0.017,0.06c0.024,0.009,0.102-0.007,0.128-0.004
						c-0.004,0.014-0.014,0.038-0.012,0.048c0.004,0.011,0.012,0.015,0.033,0.015c-0.008,0.013-0.021,0.029-0.014,0.038
						c0.016,0.013,0.035,0.01,0.053,0.009c-0.025,0.028-0.088,0.083-0.109,0.109c-0.02,0.029-0.023,0.06,0.018,0.058
						c-0.015,0.015-0.029,0.032-0.027,0.046c0.004,0.019,0.013,0.03,0.044,0.02c-0.02,0.04-0.007,0.075,0,0.117
						c-0.018,0.03-0.01,0.06-0.013,0.096c-0.031,0.017-0.035,0.04-0.055,0.074c-0.019,0.038-0.053,0.048-0.072,0.127l0.12,0.03
						c0.007-0.016,0.021-0.026,0.026-0.044c0.004-0.017,0.004-0.036,0.001-0.055c0.023-0.034,0.071-0.105,0.088-0.143
						c0.024-0.014,0.044-0.024,0.064-0.024c0.019,0,0.032,0.013,0.053,0.024c-0.011,0.033-0.035,0.067-0.038,0.112v0.123
						c-0.003,0.03-0.041,0.031-0.055,0.123l0.107,0.027c0.02-0.03,0.048-0.034,0.054-0.047l0.01-0.128
						c0.012-0.059,0.1-0.109,0.1-0.175c0.029,0,0.042,0.003,0.054-0.003c0.016-0.007,0.021-0.015,0.034-0.025
						c0.004,0.019,0.021,0.021,0.034,0.021c0.011,0,0.041-0.02,0.049-0.026c0.008,0.01,0.014,0.02,0.028,0.023
						c0.015,0.004,0.06-0.001,0.08-0.007l-0.089,0.146c-0.004,0.012,0.001,0.021-0.006,0.038c-0.006,0.015-0.019,0.021-0.025,0.035
						l0.1,0.023l0.015-0.043c0.022-0.008,0.04-0.012,0.051-0.027c0.01-0.012,0.01-0.039,0.017-0.053
						c0.035-0.026,0.09-0.078,0.126-0.123c0.024,0.004,0.062,0.025,0.075,0.058c0.004,0.032,0.005,0.096-0.01,0.139l-0.065,0.102
						l-0.008,0.016l0.102,0.036l0.063-0.049l0.004-0.071c0.03-0.058,0.078-0.088,0.123-0.125l0.002-0.077
						c-0.013-0.01-0.019-0.004-0.022-0.02c-0.004-0.015,0-0.058,0.002-0.073l0.02-0.024c-0.018-0.02-0.014-0.07-0.008-0.109
						c-0.001-0.043,0.06-0.096,0.069-0.123l0.005-0.047c-0.007-0.011-0.018-0.017-0.018-0.028l0.021-0.037l0.012-0.021l-0.001-0.114
						c-0.004-0.014-0.014-0.033-0.025-0.036c-0.012-0.001-0.025,0.01-0.036,0.022l-0.06,0.043c-0.027,0.009-0.053,0.013-0.098,0
						l-0.078,0.002c-0.041,0.01-0.062,0.011-0.097-0.004h-0.047c-0.011,0.008-0.03,0.021-0.044,0.024
						c-0.018,0.003-0.038,0.003-0.053-0.002c-0.116,0.008-0.085,0.016-0.119,0.024c-0.026-0.005-0.017-0.019-0.122-0.019
						l-0.04-0.013c-0.05-0.034-0.09-0.089-0.125-0.15c0.109-0.031,0.152-0.062,0.185-0.137l-0.15,0.007L773.539,1957.809z"/>
					<path fill="#554C21" d="M773.539,1957.809L773.539,1957.809c-0.044,0.013-0.062,0.039-0.085,0.062l-0.131-0.066
						c-0.014,0.011-0.025,0.028-0.025,0.045l0.007,0.022c0.009,0.025,0.05,0.066,0.081,0.086c-0.008,0.035-0.018,0.062-0.032,0.093
						c-0.015,0.034-0.044,0.078-0.044,0.094l-0.003,0.021c0,0.017,0.005,0.034,0.02,0.039l0.024,0.003
						c0.029,0,0.076-0.007,0.1-0.007h0.004c-0.004,0.011-0.014,0.031-0.014,0.044l0.002,0.004c0.004,0.011,0.012,0.015,0.033,0.015
						l-0.016,0.031l0.002,0.007c0.009,0.006,0.021,0.01,0.034,0.01l0.018-0.001c-0.025,0.028-0.088,0.083-0.109,0.109
						c-0.01,0.011-0.017,0.024-0.017,0.035c0,0.012,0.011,0.023,0.027,0.023h0.007c-0.015,0.014-0.027,0.03-0.027,0.044v0.002
						c0.004,0.014,0.01,0.024,0.021,0.024l0.023-0.004c-0.007,0.016-0.011,0.03-0.011,0.045c0,0.023,0.006,0.046,0.011,0.072
						c-0.018,0.03-0.011,0.06-0.013,0.096c-0.031,0.017-0.035,0.04-0.055,0.074c-0.019,0.038-0.053,0.048-0.072,0.127l0.12,0.03
						c0.007-0.016,0.021-0.026,0.026-0.044l0.004-0.029l-0.003-0.026c0.023-0.034,0.071-0.105,0.088-0.143
						c0.024-0.014,0.044-0.024,0.064-0.024c0.019,0,0.032,0.013,0.053,0.024c-0.011,0.03-0.035,0.067-0.038,0.112v0.123
						c-0.003,0.03-0.041,0.031-0.055,0.123l0.107,0.027c0.02-0.03,0.048-0.034,0.054-0.047l0.01-0.128
						c0.012-0.059,0.1-0.109,0.1-0.175h0.007c0.009,0,0.019,0.001,0.023,0.001l0.023-0.004c0.016-0.007,0.021-0.015,0.034-0.025
						c0.004,0.019,0.021,0.021,0.034,0.021c0.011,0,0.041-0.02,0.049-0.026c0.008,0.01,0.014,0.02,0.028,0.023l0.013,0.002
						c0.02,0,0.051-0.005,0.067-0.009l-0.089,0.144c-0.004,0.014,0.001,0.023-0.006,0.04c-0.006,0.015-0.019,0.021-0.025,0.035
						l0.1,0.023l0.015-0.043c0.022-0.008,0.04-0.012,0.051-0.027c0.012-0.012,0.01-0.039,0.017-0.053
						c0.035-0.026,0.09-0.078,0.126-0.123c0.024,0.004,0.062,0.025,0.075,0.058c0,0.011,0.004,0.027,0.004,0.044
						c0,0.031-0.004,0.066-0.014,0.094l-0.065,0.102l-0.008,0.016l0.102,0.038l0.063-0.05l0.004-0.072
						c0.03-0.058,0.078-0.088,0.123-0.125l0.002-0.077c-0.013-0.01-0.019-0.004-0.022-0.02v-0.025c0-0.019,0-0.038,0.002-0.048
						l0.02-0.024c-0.012-0.01-0.014-0.029-0.014-0.048c0-0.021,0.002-0.042,0.006-0.062v-0.002c0-0.044,0.062-0.096,0.069-0.121
						l0.005-0.047c-0.007-0.011-0.018-0.017-0.018-0.028l0.021-0.037l0.012-0.021l-0.001-0.114
						c-0.004-0.014-0.014-0.033-0.025-0.036h-0.001c-0.011,0-0.024,0.011-0.035,0.023l-0.06,0.043
						c-0.013,0.005-0.028,0.008-0.043,0.008c-0.017,0-0.034-0.002-0.055-0.008l-0.078,0.002c-0.018,0.006-0.034,0.007-0.049,0.007
						c-0.014,0-0.028-0.003-0.048-0.011h-0.047c-0.011,0.008-0.03,0.021-0.044,0.024l-0.026,0.003l-0.026-0.005
						c-0.116,0.008-0.085,0.016-0.119,0.024c-0.026-0.005-0.017-0.019-0.122-0.019l-0.04-0.013c-0.05-0.034-0.09-0.089-0.125-0.15
						c0.109-0.031,0.152-0.062,0.185-0.137l-0.15,0.007L773.539,1957.809L773.539,1957.809L773.539,1957.809l0.215,0.143l0.15-0.007
						c-0.032,0.074-0.075,0.106-0.185,0.137c0.035,0.062,0.075,0.116,0.125,0.15l0.04,0.013c0.104,0,0.096,0.014,0.122,0.019
						c0.034-0.008,0.003-0.016,0.119-0.024l0.026,0.005l0.026-0.003c0.014-0.003,0.033-0.016,0.044-0.024h0.047
						c0.02,0.008,0.034,0.011,0.048,0.011c0.015,0,0.031-0.001,0.049-0.007l0.078-0.002c0.021,0.006,0.038,0.009,0.055,0.009
						c0.015,0,0.03-0.004,0.043-0.009l0.06-0.043c0.011-0.012,0.024-0.023,0.035-0.023h0.001c0.012,0.003,0.021,0.022,0.025,0.036
						l0.001,0.114l-0.012,0.021l-0.021,0.037c0,0.011,0.011,0.017,0.018,0.028l-0.005,0.047c-0.009,0.025-0.069,0.077-0.069,0.121
						v0.002c-0.004,0.019-0.006,0.041-0.006,0.062c0,0.019,0.002,0.038,0.014,0.048l-0.02,0.022
						c-0.002,0.012-0.002,0.031-0.002,0.05v0.025c0.003,0.016,0.01,0.01,0.022,0.02l-0.002,0.077
						c-0.045,0.037-0.093,0.068-0.123,0.125l-0.004,0.071l-0.063,0.049l-0.102-0.036l0.008-0.016l0.065-0.102
						c0.01-0.028,0.014-0.063,0.014-0.094c0-0.017-0.004-0.034-0.004-0.044c-0.014-0.033-0.051-0.053-0.075-0.058
						c-0.036,0.045-0.091,0.097-0.126,0.123c-0.007,0.014-0.007,0.041-0.017,0.053c-0.011,0.015-0.028,0.02-0.051,0.027
						l-0.015,0.043l-0.1-0.023c0.006-0.014,0.019-0.02,0.025-0.035c0.007-0.016,0.002-0.025,0.006-0.038l0.089-0.146
						c-0.017,0.003-0.048,0.007-0.067,0.007h-0.013c-0.015-0.003-0.021-0.013-0.028-0.023c-0.008,0.007-0.038,0.025-0.049,0.025
						c-0.013,0-0.03-0.002-0.034-0.021c-0.014,0.01-0.019,0.019-0.034,0.025l-0.023,0.004c-0.004,0-0.015-0.001-0.023-0.001h-0.007
						c0,0.066-0.088,0.116-0.1,0.175l-0.01,0.128c-0.006,0.013-0.034,0.017-0.054,0.047l-0.107-0.027
						c0.014-0.092,0.052-0.093,0.055-0.123v-0.123c0.003-0.045,0.027-0.079,0.038-0.112c-0.021-0.011-0.033-0.024-0.053-0.024
						c-0.021,0-0.04,0.01-0.064,0.024c-0.017,0.037-0.065,0.109-0.088,0.143l0.001,0.026l-0.002,0.029
						c-0.006,0.017-0.019,0.028-0.026,0.044l-0.12-0.03c0.019-0.08,0.054-0.09,0.072-0.127c0.02-0.035,0.023-0.058,0.055-0.074
						c0.003-0.036-0.004-0.065,0.013-0.096c-0.005-0.026-0.011-0.049-0.011-0.072c0-0.015,0.004-0.029,0.011-0.045l-0.023,0.004
						c-0.011,0-0.017-0.01-0.021-0.024v-0.002c0-0.014,0.013-0.03,0.027-0.044h-0.007c-0.017,0-0.027-0.011-0.027-0.023
						c0-0.011,0.007-0.024,0.017-0.035c0.022-0.026,0.084-0.081,0.109-0.109l-0.018,0.001c-0.013,0-0.025-0.003-0.034-0.01
						l-0.002-0.007l0.016-0.031c-0.021,0-0.029-0.004-0.033-0.015l-0.002-0.004c0-0.013,0.01-0.033,0.014-0.044h-0.004
						c-0.023,0-0.07,0.007-0.1,0.007l-0.024-0.003c-0.015-0.007-0.02-0.022-0.02-0.039l0.003-0.021c0-0.015,0.029-0.06,0.044-0.094
						c0.014-0.031,0.024-0.059,0.032-0.093c-0.031-0.02-0.072-0.061-0.081-0.086l-0.005-0.022c0-0.017,0.01-0.034,0.023-0.045
						l0.131,0.066C773.477,1957.848,773.495,1957.822,773.539,1957.809L773.539,1957.809z"/>
					<g>
						<path fill="#3A3C41" d="M773.592,1957.77c0.02,0.004,0.042,0.01,0.06,0.019c0.015,0.009,0.009,0.009,0.028,0.022
							c-0.004-0.017-0.001-0.016-0.014-0.029c-0.012-0.012-0.028-0.024-0.046-0.035L773.592,1957.77z"/>
						<path fill="#3A3C41" d="M773.761,1957.917c0-0.019-0.006-0.033-0.012-0.048c-0.007-0.016-0.013-0.029-0.028-0.044
							c0.017,0.005,0.027,0.011,0.04,0.026c0.015,0.019,0.014,0.034,0.016,0.057L773.761,1957.917z"/>
						<path fill="#3A3C41" d="M773.803,1957.7c0.006,0.013,0.015,0.021,0.021,0.047c0.007,0.023,0.01,0.058,0.01,0.058
							c-0.001-0.018,0.004-0.038,0-0.055c-0.001-0.02-0.014-0.033-0.016-0.051L773.803,1957.7z"/>
						<polygon fill="#3A3C41" points="773.968,1957.712 773.976,1957.808 773.983,1957.716 						"/>
						<path fill="#3A3C41" d="M773.928,1957.914c0.005-0.017,0.004-0.032,0.004-0.048c-0.004-0.016-0.011-0.03-0.017-0.048
							c0.018,0.014,0.025,0.031,0.032,0.049C773.946,1957.884,773.94,1957.901,773.928,1957.914z"/>
						<path fill="#3A3C41" d="M774.1,1957.871c0,0,0.004,0.032-0.003,0.057c-0.007,0.024-0.013,0.027-0.027,0.039
							c0.02-0.014,0.034-0.018,0.043-0.034C774.118,1957.908,774.102,1957.874,774.1,1957.871z"/>
						<path fill="#3A3C41" d="M774.13,1957.839c-0.012,0.002-0.014-0.048-0.021-0.072c0.004-0.003,0.01-0.001,0.015,0.011
							C774.13,1957.784,774.126,1957.819,774.13,1957.839z"/>
						<polygon fill="#3A3C41" points="774.247,1957.819 774.25,1957.78 774.263,1957.778 774.263,1957.812 						"/>
						<path fill="#3A3C41" d="M774.239,1957.929c0.004,0.013,0.017,0.026,0.021,0.04c0,0.015-0.005,0.021-0.014,0.042h0.016
							c0.013-0.015,0.019-0.027,0.015-0.04c-0.002-0.013-0.008-0.026-0.021-0.037L774.239,1957.929z"/>
						<polygon fill="#3A3C41" points="774.378,1957.938 774.384,1957.996 774.398,1957.988 774.396,1957.938 						"/>
						<path fill="#3A3C41" d="M773.487,1957.996l0.042,0.018l0.023,0.014l0.017-0.011l0.041-0.021
							c-0.025-0.002-0.033-0.018-0.058-0.018C773.529,1957.978,773.511,1957.992,773.487,1957.996z"/>
						<path fill="#3A3C41" d="M773.674,1958.006c0.015,0.009,0.04,0.024,0.062,0.024c0.02-0.001,0.02-0.017,0.053-0.027l0.048-0.039
							c-0.028,0-0.093,0.007-0.124,0.017C773.682,1957.988,773.676,1958,773.674,1958.006z"/>
					</g>
					<path fill="#6E6F71" d="M773.565,1958.501l-0.008,0.003c-0.005-0.051-0.017-0.087-0.031-0.126
						C773.544,1958.407,773.558,1958.457,773.565,1958.501z"/>
					<path fill="#6E6F71" d="M773.687,1958.707c-0.02,0.003-0.027,0-0.047,0.001c-0.001-0.049-0.002-0.107-0.001-0.144
						c0.006,0,0.028,0.023,0.043,0.059C773.683,1958.649,773.688,1958.68,773.687,1958.707z"/>
					<path fill="#6E6F71" d="M773.817,1958.506l0.022-0.001c0.004-0.013-0.006-0.025-0.01-0.038
						c-0.017-0.027-0.023-0.058-0.031-0.071l-0.009,0.003C773.797,1958.423,773.812,1958.496,773.817,1958.506z"/>
					<path fill="#6E6F71" d="M773.954,1958.491l-0.023-0.01c0-0.013-0.031-0.113-0.024-0.116c0.007-0.003,0.025,0.034,0.031,0.051
						C773.94,1958.426,773.952,1958.46,773.954,1958.491z"/>
					<path fill="#6E6F71" d="M773.935,1958.693l0.024-0.003c0.016-0.03,0.038-0.059,0.044-0.072c0.006-0.011,0.026-0.09,0.02-0.09
						c-0.001-0.003-0.021,0.039-0.042,0.08C773.959,1958.65,773.935,1958.69,773.935,1958.693z"/>
					<path fill="#6E6F71" d="M774.072,1958.652c-0.007,0.003,0.013-0.068,0.017-0.081c0.003-0.02,0.008-0.056,0.015-0.103
						C774.116,1958.533,774.104,1958.602,774.072,1958.652z"/>
					<path fill="#6E6F71" d="M774.154,1958.433l-0.057-0.095c0.001-0.003,0.049,0.062,0.057,0.075V1958.433z"/>
					<path fill="#6E6F71" d="M774.295,1958.505c-0.005-0.003-0.004-0.035-0.012-0.069c-0.009-0.034-0.023-0.068-0.021-0.078
						l0.02,0.005c0.005,0.018,0.013,0.089,0.021,0.137L774.295,1958.505z"/>
					<path fill="#6E6F71" d="M774.392,1958.417c-0.006-0.003,0.014,0.034,0.026,0.082c0.014,0.045,0.019,0.126,0.022,0.122
						c0.007-0.006,0.006-0.013,0.02-0.016c0.014-0.004,0.066,0,0.062-0.003c-0.03-0.028-0.061-0.051-0.083-0.083
						C774.419,1958.489,774.404,1958.45,774.392,1958.417z"/>
					<path fill="#6E6F71" d="M774.51,1958.839l-0.031,0.008c-0.032-0.062-0.047-0.104-0.089-0.17
						c-0.013-0.015-0.04-0.014-0.038-0.019l0.025-0.016l0.015-0.028c-0.012,0.029,0.021,0.073,0.04,0.107
						c0.013,0.005,0.021,0.005,0.027,0.012c0,0.003-0.014,0.005-0.013,0.017l0.032,0.062c0.009,0.007,0.023,0.012,0.038,0.014
						L774.51,1958.839z"/>
					<path fill="#6E6F71" d="M774.574,1958.29c0.018,0.001,0.036,0.002,0.042-0.006c0.01-0.025,0.019-0.044,0.01-0.061
						c-0.029,0.003-0.052,0.017-0.064,0.042L774.574,1958.29z"/>
					<polyline fill="#FFFFFF" points="768.398,1958.448 768.445,1958.202 768.273,1958.05 768.505,1957.972 768.555,1957.76 
						768.716,1957.91 768.95,1957.841 768.901,1958.065 769.052,1958.228 768.856,1958.292 768.813,1958.519 768.637,1958.365 
						768.398,1958.448 					"/>
					<path fill="#FFFFFF" d="M768.486,1960.118h7.547v4.84c-0.19,1.883-2.002,3.292-3.658,3.281
						c-1.786,0.079-3.761-1.384-3.904-3.298L768.486,1960.118z"/>
					<path fill="#6E6F71" d="M768.486,1960.118v0.015h7.534v4.826h0.013l-0.013-0.002c-0.191,1.869-1.983,3.27-3.625,3.268h-0.021
						l0,0h-0.001c-0.045,0.002-0.088,0.003-0.136,0.003c-1.741,0-3.614-1.433-3.753-3.287h-0.015h0.015l0.019-4.823
						L768.486,1960.118v0.015V1960.118h-0.014l-0.021,4.825l0,0c0.143,1.875,2.03,3.315,3.786,3.315c0.048,0,0.095,0,0.138-0.001
						l-0.001-0.017v0.017h0.021c1.659-0.002,3.465-1.411,3.656-3.297v-0.001v-4.856h-7.579v0.016L768.486,1960.118L768.486,1960.118
						z"/>
					<path fill="#3A3C41" d="M768.644,1960.286h7.233v4.638c-0.185,1.806-1.918,3.156-3.504,3.146
						c-1.714,0.077-3.608-1.327-3.744-3.162L768.644,1960.286z"/>
					<path fill="#6E6F71" d="M768.644,1960.286v0.016h7.219v4.622h0.015l-0.015-0.001c-0.184,1.791-1.9,3.131-3.474,3.131h-0.016
						l0,0h-0.003c-0.043,0.003-0.085,0.004-0.131,0.004c-1.669,0-3.465-1.374-3.596-3.151h-0.015h0.015l0.017-4.622
						L768.644,1960.286v0.015V1960.286h-0.015l-0.016,4.625l0,0c0.134,1.797,1.942,3.178,3.626,3.178c0.046,0,0.089,0,0.134-0.003
						v-0.016v0.016h0.016c1.591,0,3.32-1.351,3.502-3.161v-0.001v-4.653h-7.262v0.015H768.644z"/>
					<rect x="772.991" y="1960.31" fill="#FFFFFF" width="1.395" height="1.513"/>
					<rect x="770.118" y="1960.31" fill="#FFFFFF" width="1.391" height="1.513"/>
					<rect x="768.663" y="1961.872" fill="#FFFFFF" width="1.413" height="1.477"/>
					<rect x="771.566" y="1961.872" fill="#FFFFFF" width="1.378" height="1.477"/>
					<rect x="774.426" y="1961.872" fill="#FFFFFF" width="1.424" height="1.477"/>
					<rect x="772.991" y="1963.394" fill="#FFFFFF" width="1.395" height="1.5"/>
					<rect x="770.118" y="1963.394" fill="#FFFFFF" width="1.391" height="1.5"/>
					<rect x="771.566" y="1964.94" fill="#FFFFFF" width="1.378" height="1.498"/>
					<path fill="#FFFFFF" d="M774.438,1964.953v1.472l0.849,0.001c0.389-0.564,0.52-1.116,0.556-1.473H774.438z"/>
					<path fill="#FFFFFF" d="M774.438,1964.953h-0.018l0.001,1.488l0.872,0.001l0.006-0.006c0.39-0.57,0.52-1.122,0.558-1.481
						l0.004-0.017h-1.44v0.015L774.438,1964.953v0.016h1.404v-0.016l-0.016-0.001c-0.038,0.355-0.168,0.902-0.554,1.466l0.014,0.008
						v-0.015l-0.833-0.001l-0.001-1.458L774.438,1964.953v0.015V1964.953z"/>
					<path fill="#FFFFFF" d="M772.998,1966.497l0.004,1.479c0.602-0.126,1.095-0.412,1.376-0.621v-0.858H772.998z"/>
					<path fill="#FFFFFF" d="M772.998,1966.497h-0.014v1.497l0.021-0.003c0.606-0.127,1.099-0.414,1.381-0.625l0.008-0.003v-0.881
						l-1.409,0.001v0.015L772.998,1966.497v0.017h1.365v0.842h0.015l-0.012-0.014c-0.277,0.208-0.768,0.495-1.369,0.618l0.005,0.017
						h0.015v-1.479L772.998,1966.497v0.017V1966.497z"/>
					<path fill="#FFFFFF" d="M770.126,1966.494v0.836c0.473,0.345,1.017,0.547,1.375,0.625v-1.461H770.126z"/>
					<path fill="#FFFFFF" d="M770.126,1966.494h-0.014l-0.002,0.844l0.004,0.004c0.477,0.348,1.021,0.55,1.385,0.628l0.02,0.005
						v-1.497h-1.406v0.015L770.126,1966.494v0.015l1.359,0.001v1.445h0.016l0.001-0.016c-0.357-0.077-0.898-0.278-1.368-0.623
						l-0.008,0.013h0.015v-0.836h-0.015v0.016V1966.494z"/>
					<path fill="#FFFFFF" d="M768.663,1964.951c0.047,0.578,0.293,1.115,0.559,1.478l0.845-0.001v-1.479L768.663,1964.951z"/>
					<path fill="#FFFFFF" d="M768.663,1964.951l-0.015,0.001c0.044,0.582,0.294,1.121,0.561,1.486l0.003,0.006l0.868-0.002v-1.508
						h-1.433l0.001,0.018L768.663,1964.951v0.015h1.388v1.446h-0.829v0.017l0.011-0.008c-0.262-0.362-0.508-0.897-0.55-1.472
						L768.663,1964.951v0.015V1964.951z"/>
					<path fill="#6E6F71" d="M773.549,1959.114l-0.046,0.04l-0.005,0.005v0.054v0.017l0.113-0.003h0.001h0.001
						c0.018-0.004,0.028-0.008,0.04-0.014l0.016-0.02l0.003-0.003l0.008-0.021l0.002-0.023l0.001-0.015l-0.123-0.02h-0.008
						L773.549,1959.114"/>
					<path fill="#6E6F71" d="M774.269,1959.073l-0.057,0.05l-0.007,0.005v0.057v0.014l0.123,0.01h0.002h0.004
						c0.035-0.007,0.049-0.026,0.055-0.036v-0.001h0.001c0.007-0.012,0.009-0.023,0.009-0.033v-0.001l0.001-0.014v-0.012
						l-0.116-0.039l-0.009-0.003L774.269,1959.073"/>
					<path fill="#6E6F71" d="M773.97,1958.983l-0.05,0.051l-0.006,0.005l0.004,0.046v0.014l0.117,0.004h0.002h0.001
						c0.018-0.004,0.025-0.006,0.034-0.011l0.017-0.021l-0.014-0.008l0.014,0.008l0.01-0.027l0.004-0.024l0.001-0.014l-0.121-0.028
						l-0.007-0.005L773.97,1958.983"/>
					<path fill="#6E6F71" d="M773.285,1958.961l-0.051,0.061l-0.005,0.005l0.005,0.058l0.001,0.014l0.124-0.002l0,0l0,0
						c0.04-0.008,0.056-0.026,0.062-0.042h-0.002l0.01-0.03v-0.019V1959l0.003-0.016l-0.133-0.028l-0.008-0.002L773.285,1958.961"/>
					<line fill="none" x1="771.909" y1="1958.718" x2="771.909" y2="1958.718"/>
					<line fill="none" x1="771.909" y1="1958.718" x2="771.909" y2="1958.718"/>
					<line fill="none" x1="771.903" y1="1958.631" x2="771.903" y2="1958.631"/>
					<polyline fill="#DCE9F7" points="771.946,1958.551 771.903,1958.631 771.946,1958.551 772.011,1958.536 771.946,1958.551 					
						"/>
					<line fill="none" x1="772.008" y1="1958.444" x2="772.008" y2="1958.444"/>
					<polyline fill="#DCE9F7" points="772.008,1958.444 772.053,1958.433 772.008,1958.444 					"/>
					<polyline fill="#DCE9F7" points="772.053,1958.433 772.059,1958.43 772.053,1958.433 					"/>
					<polyline fill="#DCE9F7" points="772.059,1958.43 772.067,1958.382 772.059,1958.43 					"/>
					<polyline fill="#DCE9F7" points="772,1958.298 772.001,1958.258 772.033,1958.259 772.001,1958.257 772,1958.298 					"/>
					<polyline fill="#DCE9F7" points="772.411,1958.253 772.362,1958.258 772.411,1958.253 772.445,1958.222 772.411,1958.253 					
						"/>
					<polyline fill="#DCE9F7" points="772.445,1958.222 772.493,1958.224 772.498,1958.253 772.493,1958.224 772.445,1958.222 					
						"/>
					<polyline fill="#DCE9F7" points="772.168,1958.325 772.169,1958.27 772.243,1958.219 772.169,1958.27 772.168,1958.325 
						772.131,1958.334 772.096,1958.284 772.033,1958.259 772.096,1958.284 772.131,1958.334 772.168,1958.325 					"/>
					<polyline fill="#FFFFFF" points="772.169,1958.27 772.168,1958.325 772.131,1958.334 772.096,1958.284 772.033,1958.259 
						772.001,1958.258 772,1958.298 772.067,1958.382 772.059,1958.43 772.053,1958.433 772.008,1958.444 772.011,1958.536 
						771.946,1958.551 771.903,1958.631 771.93,1958.658 771.909,1958.718 771.93,1958.658 771.909,1958.718 771.926,1958.74 
						771.943,1958.789 771.985,1958.796 771.994,1958.854 772.062,1958.865 772.127,1958.908 772.13,1958.935 772.198,1958.937 
						772.247,1958.953 772.416,1958.932 772.438,1958.898 772.442,1958.852 772.532,1958.848 772.54,1958.772 772.587,1958.772 
						772.581,1958.688 772.587,1958.772 772.581,1958.688 772.621,1958.69 772.612,1958.65 772.587,1958.618 772.581,1958.566 
						772.511,1958.496 772.493,1958.406 772.451,1958.385 772.448,1958.323 772.451,1958.385 772.493,1958.406 772.511,1958.496 
						772.581,1958.566 772.587,1958.618 772.612,1958.65 772.621,1958.69 772.612,1958.65 772.587,1958.618 772.581,1958.566 
						772.511,1958.496 772.493,1958.406 772.451,1958.385 772.448,1958.323 772.498,1958.253 772.493,1958.224 772.445,1958.222 
						772.411,1958.253 772.362,1958.258 772.362,1958.28 772.374,1958.32 772.32,1958.32 772.374,1958.32 772.32,1958.32 
						772.319,1958.258 772.243,1958.219 772.169,1958.27 					"/>
					<polyline fill="#FFFFFF" points="771.724,1957.53 771.72,1957.585 771.685,1957.595 771.648,1957.542 771.588,1957.519 
						771.554,1957.518 771.554,1957.558 771.618,1957.642 771.61,1957.691 771.604,1957.692 771.56,1957.705 771.562,1957.797 
						771.499,1957.811 771.454,1957.891 771.481,1957.917 771.461,1957.978 771.484,1957.917 771.461,1957.978 771.479,1958 
						771.495,1958.05 771.54,1958.057 771.548,1958.115 771.616,1958.125 771.679,1958.168 771.683,1958.195 771.751,1958.198 
						771.801,1958.214 771.97,1958.193 771.991,1958.158 771.993,1958.112 772.083,1958.108 772.093,1958.033 772.141,1958.033 
						772.134,1957.948 772.141,1958.033 772.134,1957.948 772.175,1957.952 772.165,1957.911 772.141,1957.877 772.134,1957.826 
						772.062,1957.756 772.048,1957.666 772.005,1957.645 772,1957.583 772.005,1957.645 772.048,1957.666 772.062,1957.756 
						772.134,1957.826 772.141,1957.877 772.165,1957.911 772.175,1957.952 772.165,1957.911 772.141,1957.877 772.134,1957.826 
						772.062,1957.756 772.048,1957.666 772.005,1957.645 772,1957.583 772.049,1957.513 772.046,1957.484 772,1957.483 
						771.964,1957.513 771.917,1957.518 771.917,1957.539 771.929,1957.58 771.871,1957.58 771.929,1957.58 771.871,1957.58 
						771.87,1957.518 771.794,1957.48 771.724,1957.53 					"/>
					<polyline fill="#DCE9F7" points="772.319,1958.258 772.32,1958.32 772.319,1958.257 772.243,1958.219 772.319,1958.258 					
						"/>
					<path fill="#3A3C41" d="M770.247,1956.744l1.081,0.609l0.186,1.975c0,0-0.391,0.041-0.725,0.073
						c-0.331,0.033-0.812,0.138-0.812,0.138l-0.503-1.869L770.247,1956.744z"/>
					<path fill="#6E6F71" d="M769.497,1957.679c0.269-0.13,0.574-0.229,0.894-0.273c0.309-0.044,0.616-0.048,0.933-0.048
						l0.041,0.488c-0.248,0.002-0.434-0.001-0.871,0.055c-0.437,0.061-0.614,0.111-0.88,0.214L769.497,1957.679z"/>
					<path fill="#6E6F71" d="M769.854,1959.066l0.015-0.003c0.121-0.029,0.465-0.127,0.81-0.173
						c0.397-0.055,0.793-0.055,0.793-0.055l-0.047-0.529h-0.016c-0.107-0.009-0.348-0.033-0.857,0.02
						c-0.51,0.052-0.837,0.214-0.837,0.214l0.15,0.508l-0.138-0.512L769.854,1959.066z"/>
					<g>
						<line fill="none" x1="772.661" y1="1957.771" x2="772.661" y2="1957.771"/>
						<polyline fill="#FFFFFF" points="772.517,1957.771 772.517,1957.771 772.661,1957.771 772.517,1957.771 						"/>
						<polyline fill="#FFFFFF" points="772.704,1957.686 772.627,1957.688 772.704,1957.686 						"/>
						<polyline fill="#FFFFFF" points="772.704,1957.686 772.704,1957.686 772.674,1957.707 772.674,1957.765 772.801,1957.766 
							772.845,1957.756 772.801,1957.766 772.674,1957.765 772.674,1957.707 772.674,1957.765 772.801,1957.766 772.845,1957.756 
							772.793,1957.794 772.763,1957.849 772.745,1957.853 772.695,1957.789 772.64,1957.79 772.612,1957.866 772.587,1957.863 
							772.53,1957.802 772.517,1957.771 772.661,1957.771 772.66,1957.701 772.627,1957.688 772.704,1957.686 						"/>
						<path fill="#554C21" d="M772.466,1957.67L772.466,1957.67 M772.649,1957.458l-0.071,0.048l-0.005,0.056l-0.035,0.01
							l-0.034-0.052l-0.062-0.023l-0.035-0.001l0.035,0.001l0.062,0.023l0.034,0.052l0.035-0.01l0.005-0.056L772.649,1957.458
							l0.076,0.039l0.004,0.062h0.054h-0.054l-0.004-0.062L772.649,1957.458"/>
						<line fill="none" x1="772.783" y1="1957.559" x2="772.783" y2="1957.559"/>
						<polyline fill="#554C21" points="772.854,1957.463 772.817,1957.493 772.771,1957.497 772.817,1957.493 772.854,1957.463 
							772.901,1957.464 772.903,1957.493 772.901,1957.464 772.854,1957.463 						"/>
						<polyline fill="#554C21" points="772.903,1957.493 772.854,1957.562 772.903,1957.493 						"/>
						<polyline fill="#554C21" points="772.407,1957.497 772.407,1957.536 772.472,1957.621 772.407,1957.536 772.407,1957.497 
													"/>
						<polyline fill="#554C21" points="772.771,1957.497 772.771,1957.497 772.771,1957.518 772.783,1957.559 772.771,1957.518 
							772.771,1957.497 						"/>
						<polyline fill="#554C21" points="772.854,1957.562 772.854,1957.562 772.856,1957.623 772.903,1957.645 772.916,1957.733 
							772.99,1957.805 772.992,1957.855 773.018,1957.89 773.03,1957.931 773.018,1957.89 772.992,1957.855 772.99,1957.805 
							772.916,1957.733 772.903,1957.645 772.856,1957.623 772.854,1957.562 						"/>
						<line fill="none" x1="772.854" y1="1957.562" x2="772.854" y2="1957.562"/>
						<polyline fill="#554C21" points="772.472,1957.621 772.466,1957.67 772.472,1957.621 						"/>
						<line fill="none" x1="772.472" y1="1957.621" x2="772.472" y2="1957.621"/>
						<polyline fill="#554C21" points="772.458,1957.672 772.414,1957.683 772.458,1957.672 						"/>
						<polyline fill="#554C21" points="772.414,1957.683 772.414,1957.683 772.416,1957.775 772.414,1957.683 						"/>
						<polyline fill="#554C21" points="772.416,1957.775 772.354,1957.789 772.309,1957.871 772.354,1957.789 772.416,1957.775 
													"/>
						<line fill="none" x1="772.416" y1="1957.775" x2="772.416" y2="1957.775"/>
						<polyline fill="#554C21" points="772.315,1957.955 772.315,1957.955 772.333,1957.978 772.35,1958.03 772.394,1958.034 
							772.403,1958.093 772.472,1958.103 772.532,1958.147 772.534,1958.175 772.607,1958.176 772.655,1958.191 772.824,1958.173 
							772.846,1958.139 772.848,1958.091 772.938,1958.087 772.948,1958.011 772.995,1958.011 772.948,1958.011 772.938,1958.087 
							772.848,1958.091 772.846,1958.139 772.824,1958.173 772.655,1958.191 772.607,1958.176 772.534,1958.175 772.532,1958.147 
							772.472,1958.103 772.403,1958.093 772.394,1958.034 772.35,1958.03 772.333,1957.978 772.315,1957.955 						"/>
						<polyline fill="#554C21" points="772.95,1958.01 772.935,1957.958 772.935,1957.958 772.95,1958.01 						"/>
						<polyline fill="#3A3C41" points="772.339,1957.888 772.411,1957.884 772.425,1957.949 772.451,1957.972 772.455,1958.092 
							772.479,1958.102 772.485,1958.054 772.544,1958.05 772.555,1958.147 772.54,1958.16 772.545,1958.174 772.614,1958.173 
							772.633,1958.147 772.668,1958.146 772.685,1958.173 772.695,1958.136 772.732,1958.122 772.763,1958.167 772.812,1958.161 
							772.783,1958.133 772.767,1958.07 772.839,1958.033 772.867,1958.079 772.89,1958.079 772.86,1958.026 772.86,1957.917 
							772.915,1957.846 772.988,1957.836 772.988,1957.808 772.915,1957.74 772.894,1957.648 772.854,1957.627 772.841,1957.638 
							772.797,1957.645 772.841,1957.712 772.841,1957.753 772.861,1957.765 772.859,1957.886 772.807,1957.894 772.804,1957.961 
							772.771,1957.992 772.752,1958.055 772.722,1958.093 772.663,1958.095 772.63,1958.061 772.626,1958.016 772.601,1958.009 
							772.587,1957.958 772.548,1957.937 772.545,1957.906 772.51,1957.89 772.504,1957.86 772.483,1957.848 772.482,1957.774 
							772.517,1957.77 772.498,1957.743 772.492,1957.723 772.492,1957.701 772.518,1957.674 772.47,1957.668 772.418,1957.688 
							772.417,1957.778 772.36,1957.795 772.313,1957.869 772.339,1957.888 						"/>
						<polyline fill="#3A3C41" points="772.339,1957.888 772.411,1957.884 772.425,1957.949 772.451,1957.972 772.455,1958.092 
							772.479,1958.102 772.485,1958.054 772.544,1958.05 772.555,1958.147 772.54,1958.16 772.545,1958.174 772.614,1958.173 
							772.633,1958.147 772.668,1958.146 772.685,1958.173 772.695,1958.136 772.732,1958.122 772.763,1958.167 772.812,1958.161 
							772.783,1958.133 772.767,1958.07 772.839,1958.033 772.867,1958.079 772.89,1958.079 772.86,1958.026 772.86,1957.917 
							772.915,1957.846 772.988,1957.836 772.988,1957.808 772.915,1957.74 772.894,1957.648 772.854,1957.627 772.841,1957.638 
							772.797,1957.645 772.841,1957.712 772.841,1957.753 772.861,1957.765 772.859,1957.886 772.807,1957.894 772.804,1957.961 
							772.771,1957.992 772.752,1958.055 772.722,1958.093 772.663,1958.095 772.63,1958.061 772.626,1958.016 772.601,1958.009 
							772.587,1957.958 772.548,1957.937 772.545,1957.906 772.51,1957.89 772.504,1957.86 772.483,1957.848 772.483,1957.774 
							772.517,1957.77 772.498,1957.743 772.492,1957.723 772.492,1957.701 772.518,1957.674 772.47,1957.668 772.418,1957.688 
							772.417,1957.778 772.36,1957.795 772.313,1957.869 772.339,1957.888 772.313,1957.869 772.36,1957.795 772.417,1957.778 
							772.418,1957.688 772.47,1957.668 772.518,1957.674 772.492,1957.701 772.492,1957.723 772.498,1957.743 772.517,1957.77 
							772.482,1957.774 772.483,1957.848 772.504,1957.86 772.51,1957.89 772.545,1957.906 772.548,1957.937 772.587,1957.958 
							772.601,1958.009 772.626,1958.016 772.63,1958.061 772.663,1958.095 772.722,1958.093 772.752,1958.055 772.771,1957.992 
							772.804,1957.961 772.807,1957.894 772.859,1957.886 772.861,1957.765 772.841,1957.753 772.841,1957.712 772.797,1957.645 
							772.841,1957.638 772.854,1957.627 772.894,1957.648 772.915,1957.74 772.988,1957.808 772.988,1957.836 772.915,1957.846 
							772.86,1957.917 772.86,1958.026 772.89,1958.079 772.867,1958.079 772.839,1958.033 772.767,1958.07 772.783,1958.133 
							772.812,1958.161 772.763,1958.167 772.732,1958.122 772.695,1958.136 772.685,1958.173 772.668,1958.146 772.633,1958.147 
							772.614,1958.173 772.545,1958.174 772.54,1958.16 772.555,1958.147 772.544,1958.05 772.485,1958.054 772.479,1958.102 
							772.455,1958.092 772.451,1957.972 772.425,1957.949 772.411,1957.884 772.339,1957.888 						"/>
						<path fill="#554C21" d="M772.627,1958.01l0.037-0.022l-0.001-0.043l-0.036-0.007l-0.014-0.013l0.04,0.006l0.05-0.003
							l0.019-0.01c-0.01,0.02-0.014,0.018-0.017,0.018l-0.027,0.013l0.003,0.041l0.084,0.01l-0.002,0.017l-0.092-0.02l-0.052,0.033
							L772.627,1958.01z"/>
						<path fill="#3A3C41" d="M772.627,1958.01L772.627,1958.01l0.037-0.022l-0.001-0.043l-0.036-0.007l-0.014-0.013l0.04,0.006
							l0.05-0.003l0.019-0.01c-0.006,0.017-0.012,0.018-0.014,0.018h-0.003l-0.027,0.013l0.003,0.041l0.084,0.01l-0.002,0.017
							l-0.092-0.02l-0.052,0.033L772.627,1958.01L772.627,1958.01L772.627,1958.01l-0.008,0.02l0.052-0.033l0.092,0.02l0.002-0.017
							l-0.084-0.01l-0.003-0.041l0.027-0.013h0.003c0.002,0,0.008-0.001,0.014-0.018l-0.019,0.01l-0.05,0.003l-0.04-0.006
							l0.014,0.013l0.036,0.007l0.001,0.043L772.627,1958.01L772.627,1958.01z"/>
						<path fill="#554C21" d="M772.498,1957.679c0.054-0.021,0.091-0.037,0.157-0.044c0.013,0,0.028-0.001,0.041-0.001
							c0.046,0,0.082,0.007,0.123,0.015l0,0c-0.041-0.008-0.077-0.015-0.123-0.015c-0.013,0-0.028,0.001-0.041,0.001
							C772.589,1957.642,772.552,1957.658,772.498,1957.679L772.498,1957.679z"/>
						<polygon fill="#554C21" points="772.526,1957.568 772.484,1957.568 772.423,1957.505 772.458,1957.508 772.498,1957.525 
													"/>
						<polygon fill="#3A3C41" points="772.526,1957.568 772.526,1957.568 772.484,1957.568 772.423,1957.505 772.458,1957.508 
							772.498,1957.525 772.526,1957.568 772.526,1957.568 772.526,1957.568 772.498,1957.525 772.458,1957.508 772.423,1957.505 
							772.484,1957.568 						"/>
						<polygon fill="#554C21" points="772.79,1957.544 772.886,1957.47 772.854,1957.466 772.817,1957.5 772.773,1957.506 						"/>
						<polygon fill="#3A3C41" points="772.79,1957.544 772.79,1957.544 772.886,1957.47 772.854,1957.466 772.817,1957.5 
							772.773,1957.506 772.79,1957.544 772.79,1957.544 772.79,1957.544 772.773,1957.506 772.817,1957.5 772.854,1957.466 
							772.886,1957.47 						"/>
						<polygon fill="#554C21" points="772.731,1957.558 772.578,1957.562 772.581,1957.546 772.636,1957.542 772.643,1957.519 
							772.66,1957.519 772.67,1957.541 772.726,1957.549 						"/>
						<polygon fill="#3A3C41" points="772.731,1957.558 772.731,1957.558 772.578,1957.562 772.581,1957.546 772.636,1957.542 
							772.643,1957.519 772.66,1957.519 772.67,1957.541 772.726,1957.549 772.731,1957.558 772.731,1957.558 772.731,1957.558 
							772.726,1957.549 772.67,1957.541 772.66,1957.519 772.643,1957.519 772.636,1957.542 772.581,1957.546 772.578,1957.562 
													"/>
						<polygon fill="#554C21" points="772.724,1957.501 772.67,1957.501 772.667,1957.473 						"/>
						<polygon fill="#3A3C41" points="772.724,1957.501 772.724,1957.501 772.67,1957.501 772.667,1957.473 772.724,1957.501 
							772.724,1957.501 772.724,1957.501 772.667,1957.473 772.67,1957.501 						"/>
						<polygon fill="#554C21" points="772.635,1957.474 772.629,1957.503 772.578,1957.511 						"/>
						<polygon fill="#3A3C41" points="772.635,1957.474 772.635,1957.474 772.629,1957.503 772.578,1957.511 772.635,1957.474 
							772.635,1957.474 772.635,1957.474 772.578,1957.511 772.629,1957.503 						"/>
						<polygon fill="#554C21" points="772.341,1957.997 772.367,1957.932 772.343,1957.886 772.32,1957.954 						"/>
						<polygon fill="#554C21" points="772.341,1957.997 772.341,1957.997 772.367,1957.932 772.343,1957.886 772.32,1957.954 
							772.341,1957.997 772.341,1957.997 772.341,1957.997 772.32,1957.954 772.343,1957.886 772.367,1957.932 						"/>
						<polygon fill="#554C21" points="772.396,1958.033 772.425,1957.955 772.366,1958.018 						"/>
						<polygon fill="#554C21" points="772.396,1958.033 772.396,1958.033 772.425,1957.955 772.366,1958.018 772.396,1958.033 
							772.396,1958.033 772.396,1958.033 772.366,1958.018 772.425,1957.955 						"/>
						<polyline fill="#6E6F71" points="772.704,1957.686 772.704,1957.686 772.674,1957.707 772.674,1957.765 772.801,1957.766 
							772.845,1957.756 772.801,1957.766 772.674,1957.765 772.674,1957.707 772.674,1957.765 772.801,1957.766 772.845,1957.756 
							772.793,1957.794 772.763,1957.849 772.745,1957.853 772.695,1957.789 772.64,1957.79 772.612,1957.866 772.587,1957.863 
							772.53,1957.802 772.517,1957.771 772.661,1957.771 772.66,1957.701 772.627,1957.688 772.704,1957.686 						"/>
						<polygon fill="#A4A5A9" points="772.75,1957.782 772.75,1957.782 772.765,1957.798 772.75,1957.814 772.732,1957.798 						
							"/>
						<polygon fill="#A4A5A9" points="772.581,1957.792 772.581,1957.792 772.595,1957.808 772.581,1957.824 772.565,1957.808 
													"/>
					</g>
					<g>
						<line fill="none" x1="772.252" y1="1958.526" x2="772.252" y2="1958.526"/>
						<polyline fill="#FFFFFF" points="772.106,1958.525 772.106,1958.525 772.252,1958.526 772.106,1958.525 						"/>
						<polyline fill="#FFFFFF" points="772.294,1958.441 772.218,1958.444 772.294,1958.441 						"/>
						<polyline fill="#FFFFFF" points="772.294,1958.441 772.294,1958.441 772.265,1958.463 772.265,1958.521 772.394,1958.522 
							772.435,1958.512 772.394,1958.522 772.265,1958.521 772.265,1958.463 772.265,1958.521 772.394,1958.522 772.435,1958.512 
							772.387,1958.549 772.352,1958.604 772.335,1958.609 772.286,1958.544 772.231,1958.546 772.202,1958.622 772.178,1958.621 
							772.121,1958.557 772.106,1958.525 772.252,1958.526 772.251,1958.457 772.218,1958.444 772.294,1958.441 						"/>
						<path fill="#554C21" d="M772.056,1958.426L772.056,1958.426 M772.239,1958.214l-0.07,0.049l-0.004,0.057l-0.035,0.01
							l-0.035-0.053l-0.062-0.022l-0.033-0.003l0.033,0.003l0.062,0.022l0.035,0.053l0.035-0.01l0.004-0.057L772.239,1958.214
							l0.076,0.038l0.005,0.063h0.053h-0.053l-0.005-0.063L772.239,1958.214"/>
						<line fill="none" x1="772.373" y1="1958.314" x2="772.373" y2="1958.314"/>
						<polyline fill="#554C21" points="772.443,1958.218 772.407,1958.248 772.36,1958.253 772.407,1958.248 772.443,1958.218 
							772.492,1958.218 772.493,1958.248 772.492,1958.218 772.443,1958.218 						"/>
						<polyline fill="#554C21" points="772.493,1958.248 772.443,1958.317 772.493,1958.248 						"/>
						<polyline fill="#554C21" points="771.999,1958.251 771.999,1958.293 772.062,1958.375 771.999,1958.293 771.999,1958.251 
													"/>
						<polyline fill="#554C21" points="772.36,1958.253 772.36,1958.253 772.36,1958.274 772.373,1958.314 772.36,1958.274 
							772.36,1958.253 						"/>
						<polyline fill="#554C21" points="772.443,1958.317 772.443,1958.317 772.449,1958.378 772.493,1958.399 772.51,1958.491 
							772.581,1958.561 772.585,1958.611 772.608,1958.646 772.621,1958.686 772.608,1958.646 772.585,1958.611 772.581,1958.561 
							772.51,1958.491 772.493,1958.399 772.449,1958.378 772.443,1958.317 						"/>
						<line fill="none" x1="772.443" y1="1958.317" x2="772.443" y2="1958.317"/>
						<polyline fill="#554C21" points="772.062,1958.375 772.056,1958.426 772.062,1958.375 						"/>
						<line fill="none" x1="772.062" y1="1958.375" x2="772.062" y2="1958.375"/>
						<polyline fill="#554C21" points="772.048,1958.427 772.005,1958.438 772.048,1958.427 						"/>
						<polyline fill="#554C21" points="772.005,1958.438 772.005,1958.438 772.008,1958.53 772.005,1958.438 						"/>
						<polyline fill="#554C21" points="772.008,1958.53 771.945,1958.544 771.901,1958.626 771.945,1958.544 772.008,1958.53 						
							"/>
						<line fill="none" x1="772.008" y1="1958.53" x2="772.008" y2="1958.53"/>
						<polyline fill="#554C21" points="771.908,1958.713 771.908,1958.713 771.924,1958.733 771.943,1958.783 771.984,1958.789 
							771.992,1958.85 772.062,1958.86 772.123,1958.904 772.128,1958.93 772.197,1958.93 772.246,1958.947 772.415,1958.928 
							772.437,1958.892 772.438,1958.845 772.53,1958.843 772.538,1958.768 772.587,1958.768 772.538,1958.768 772.53,1958.843 
							772.438,1958.845 772.437,1958.892 772.415,1958.928 772.246,1958.947 772.197,1958.93 772.128,1958.93 772.123,1958.904 
							772.062,1958.86 771.992,1958.85 771.984,1958.789 771.943,1958.783 771.924,1958.733 771.908,1958.713 						"/>
						<polyline fill="#554C21" points="772.54,1958.765 772.525,1958.715 772.525,1958.715 772.54,1958.765 						"/>
						<polyline fill="#3A3C41" points="771.93,1958.643 772.005,1958.64 772.019,1958.706 772.041,1958.728 772.046,1958.847 
							772.072,1958.857 772.075,1958.809 772.134,1958.806 772.148,1958.902 772.131,1958.915 772.136,1958.93 772.206,1958.928 
							772.224,1958.902 772.26,1958.899 772.274,1958.928 772.286,1958.891 772.322,1958.877 772.352,1958.923 772.403,1958.917 
							772.373,1958.888 772.36,1958.826 772.43,1958.789 772.456,1958.834 772.482,1958.834 772.451,1958.782 772.451,1958.673 
							772.505,1958.601 772.579,1958.593 772.579,1958.564 772.505,1958.496 772.485,1958.403 772.443,1958.383 772.435,1958.395 
							772.388,1958.399 772.435,1958.467 772.435,1958.51 772.452,1958.521 772.45,1958.641 772.398,1958.649 772.396,1958.716 
							772.36,1958.748 772.342,1958.812 772.312,1958.85 772.253,1958.851 772.223,1958.817 772.216,1958.769 772.191,1958.763 
							772.178,1958.713 772.141,1958.691 772.136,1958.662 772.101,1958.646 772.095,1958.618 772.074,1958.604 772.072,1958.529 
							772.106,1958.523 772.089,1958.5 772.082,1958.478 772.082,1958.457 772.109,1958.43 772.06,1958.426 772.011,1958.444 
							772.008,1958.534 771.951,1958.551 771.905,1958.623 771.93,1958.643 						"/>
						<polyline fill="#3A3C41" points="771.93,1958.643 772.005,1958.64 772.019,1958.706 772.041,1958.728 772.046,1958.847 
							772.072,1958.857 772.075,1958.809 772.134,1958.806 772.148,1958.902 772.131,1958.915 772.136,1958.93 772.206,1958.928 
							772.224,1958.902 772.26,1958.899 772.274,1958.928 772.286,1958.891 772.322,1958.877 772.352,1958.923 772.403,1958.917 
							772.373,1958.888 772.36,1958.826 772.43,1958.789 772.456,1958.834 772.482,1958.834 772.451,1958.782 772.451,1958.673 
							772.505,1958.601 772.579,1958.593 772.579,1958.564 772.505,1958.496 772.485,1958.403 772.443,1958.383 772.435,1958.395 
							772.388,1958.399 772.435,1958.467 772.435,1958.51 772.452,1958.521 772.45,1958.641 772.398,1958.649 772.396,1958.716 
							772.36,1958.748 772.342,1958.812 772.312,1958.85 772.253,1958.851 772.223,1958.817 772.216,1958.769 772.191,1958.763 
							772.178,1958.713 772.141,1958.691 772.136,1958.662 772.101,1958.646 772.095,1958.618 772.074,1958.604 772.074,1958.529 
							772.106,1958.523 772.089,1958.5 772.082,1958.478 772.082,1958.457 772.109,1958.43 772.06,1958.426 772.011,1958.444 
							772.008,1958.534 771.951,1958.551 771.905,1958.623 771.93,1958.643 771.905,1958.623 771.951,1958.551 772.008,1958.534 
							772.011,1958.444 772.06,1958.426 772.109,1958.43 772.082,1958.457 772.082,1958.478 772.089,1958.5 772.106,1958.523 
							772.072,1958.529 772.074,1958.604 772.095,1958.618 772.101,1958.646 772.136,1958.662 772.141,1958.691 772.178,1958.713 
							772.191,1958.763 772.216,1958.769 772.223,1958.817 772.253,1958.851 772.312,1958.85 772.342,1958.812 772.36,1958.748 
							772.396,1958.716 772.398,1958.649 772.45,1958.641 772.452,1958.521 772.435,1958.51 772.435,1958.467 772.388,1958.399 
							772.435,1958.395 772.443,1958.383 772.485,1958.403 772.505,1958.496 772.579,1958.564 772.579,1958.593 772.505,1958.601 
							772.451,1958.673 772.451,1958.782 772.482,1958.834 772.456,1958.834 772.43,1958.789 772.36,1958.826 772.373,1958.888 
							772.403,1958.917 772.352,1958.923 772.322,1958.877 772.286,1958.891 772.274,1958.928 772.26,1958.899 772.224,1958.902 
							772.206,1958.928 772.136,1958.93 772.131,1958.915 772.148,1958.902 772.134,1958.806 772.075,1958.809 772.072,1958.857 
							772.046,1958.847 772.041,1958.728 772.019,1958.706 772.005,1958.64 771.93,1958.643 						"/>
						<path fill="#554C21" d="M772.218,1958.765l0.036-0.021l-0.001-0.043l-0.035-0.007l-0.014-0.014l0.041,0.006l0.049-0.005
							l0.019-0.007c-0.008,0.018-0.013,0.017-0.015,0.017l-0.026,0.013l0.001,0.042l0.083,0.01l-0.003,0.017l-0.088-0.02
							l-0.055,0.033L772.218,1958.765z"/>
						<path fill="#3A3C41" d="M772.218,1958.765L772.218,1958.765l0.036-0.021l-0.001-0.043l-0.035-0.007l-0.014-0.014l0.041,0.006
							l0.049-0.005l0.019-0.007c-0.007,0.016-0.012,0.017-0.014,0.017h-0.001l-0.026,0.013l0.001,0.042l0.083,0.01l-0.003,0.017
							l-0.088-0.02l-0.055,0.033L772.218,1958.765L772.218,1958.765L772.218,1958.765l-0.008,0.02l0.055-0.033l0.088,0.02
							l0.003-0.017l-0.083-0.01l-0.001-0.042l0.026-0.013h0.001c0.002,0,0.007-0.001,0.014-0.017l-0.019,0.007l-0.049,0.005
							l-0.041-0.006l0.014,0.014l0.035,0.007l0.001,0.043L772.218,1958.765L772.218,1958.765z"/>
						<path fill="#554C21" d="M772.089,1958.435c0.053-0.021,0.09-0.038,0.157-0.043c0.014-0.002,0.026-0.002,0.042-0.002
							c0.045,0,0.081,0.007,0.122,0.014l0,0c-0.041-0.007-0.077-0.014-0.122-0.014c-0.016,0-0.028,0-0.042,0.002
							C772.179,1958.396,772.142,1958.414,772.089,1958.435L772.089,1958.435z"/>
						<polygon fill="#554C21" points="772.12,1958.324 772.075,1958.324 772.013,1958.259 772.048,1958.265 772.089,1958.282 						
							"/>
						<polygon fill="#3A3C41" points="772.12,1958.324 772.12,1958.324 772.075,1958.324 772.013,1958.259 772.048,1958.265 
							772.089,1958.282 772.12,1958.324 772.12,1958.324 772.12,1958.324 772.089,1958.282 772.048,1958.265 772.013,1958.259 
							772.075,1958.324 						"/>
						<polygon fill="#554C21" points="772.381,1958.298 772.477,1958.225 772.443,1958.222 772.409,1958.255 772.366,1958.26 						
							"/>
						<polygon fill="#3A3C41" points="772.381,1958.298 772.381,1958.298 772.477,1958.225 772.443,1958.222 772.409,1958.255 
							772.366,1958.26 772.381,1958.298 772.381,1958.298 772.381,1958.298 772.366,1958.26 772.409,1958.255 772.443,1958.222 
							772.477,1958.225 						"/>
						<polygon fill="#554C21" points="772.322,1958.313 772.169,1958.32 772.171,1958.303 772.226,1958.297 772.231,1958.275 
							772.251,1958.275 772.264,1958.294 772.318,1958.305 						"/>
						<polygon fill="#3A3C41" points="772.322,1958.313 772.322,1958.313 772.169,1958.32 772.171,1958.303 772.226,1958.297 
							772.231,1958.275 772.251,1958.275 772.264,1958.294 772.318,1958.305 772.322,1958.313 772.322,1958.313 772.322,1958.313 
							772.318,1958.305 772.264,1958.294 772.251,1958.275 772.231,1958.275 772.226,1958.297 772.171,1958.303 772.169,1958.32 
													"/>
						<polygon fill="#554C21" points="772.313,1958.256 772.261,1958.257 772.258,1958.229 						"/>
						<polygon fill="#3A3C41" points="772.313,1958.256 772.313,1958.256 772.261,1958.257 772.258,1958.229 772.313,1958.256 
							772.313,1958.256 772.313,1958.256 772.258,1958.229 772.261,1958.257 						"/>
						<polygon fill="#554C21" points="772.226,1958.229 772.22,1958.258 772.169,1958.267 						"/>
						<polygon fill="#3A3C41" points="772.226,1958.229 772.226,1958.229 772.22,1958.258 772.169,1958.267 772.226,1958.229 
							772.226,1958.229 772.226,1958.229 772.169,1958.267 772.22,1958.258 						"/>
						<polygon fill="#554C21" points="771.932,1958.752 771.958,1958.688 771.935,1958.642 771.911,1958.709 						"/>
						<polygon fill="#554C21" points="771.932,1958.752 771.932,1958.752 771.958,1958.688 771.935,1958.642 771.911,1958.709 
							771.932,1958.752 771.932,1958.752 771.932,1958.752 771.911,1958.709 771.935,1958.642 771.958,1958.688 						"/>
						<polygon fill="#554C21" points="771.985,1958.789 772.019,1958.71 771.956,1958.773 						"/>
						<polygon fill="#554C21" points="771.985,1958.789 771.985,1958.789 772.019,1958.71 771.956,1958.773 771.985,1958.789 
							771.985,1958.789 771.985,1958.789 771.956,1958.773 772.019,1958.71 						"/>
						<polyline fill="#6E6F71" points="772.294,1958.441 772.294,1958.441 772.265,1958.463 772.265,1958.521 772.394,1958.522 
							772.435,1958.512 772.394,1958.522 772.265,1958.521 772.265,1958.463 772.265,1958.521 772.394,1958.522 772.435,1958.512 
							772.387,1958.549 772.352,1958.604 772.335,1958.609 772.286,1958.544 772.231,1958.546 772.202,1958.622 772.178,1958.621 
							772.121,1958.557 772.106,1958.525 772.252,1958.526 772.251,1958.457 772.218,1958.444 772.294,1958.441 						"/>
						<polygon fill="#A4A5A9" points="772.341,1958.537 772.341,1958.537 772.356,1958.554 772.341,1958.57 772.322,1958.554 						
							"/>
						<polygon fill="#A4A5A9" points="772.171,1958.547 772.171,1958.547 772.188,1958.564 772.171,1958.581 772.151,1958.564 
													"/>
					</g>
					<g>
						<line fill="none" x1="771.808" y1="1957.794" x2="771.808" y2="1957.794"/>
						<polyline fill="#FFFFFF" points="771.662,1957.794 771.662,1957.794 771.808,1957.794 771.662,1957.794 						"/>
						<polyline fill="#FFFFFF" points="771.851,1957.71 771.773,1957.712 771.851,1957.71 						"/>
						<polyline fill="#FFFFFF" points="771.851,1957.71 771.851,1957.71 771.821,1957.73 771.821,1957.789 771.951,1957.79 
							771.991,1957.78 771.951,1957.79 771.821,1957.789 771.821,1957.73 771.821,1957.789 771.951,1957.79 771.991,1957.78 
							771.943,1957.818 771.909,1957.873 771.894,1957.876 771.843,1957.812 771.788,1957.812 771.759,1957.89 771.734,1957.888 
							771.678,1957.826 771.662,1957.794 771.808,1957.794 771.807,1957.726 771.773,1957.712 771.851,1957.71 						"/>
						<path fill="#554C21" d="M771.615,1957.692L771.615,1957.692 M771.799,1957.48l-0.073,0.051l-0.002,0.056l-0.037,0.01
							l-0.037-0.053l-0.06-0.023l-0.033-0.001l0.033,0.001l0.06,0.023l0.037,0.053l0.037-0.01l0.002-0.056L771.799,1957.48
							l0.075,0.04l0.002,0.062h0.054h-0.054l-0.002-0.062L771.799,1957.48"/>
						<line fill="none" x1="771.93" y1="1957.582" x2="771.93" y2="1957.582"/>
						<polyline fill="#554C21" points="772.001,1957.486 771.964,1957.515 771.917,1957.521 771.964,1957.515 772.001,1957.486 
							772.048,1957.487 772.053,1957.515 772.048,1957.487 772.001,1957.486 						"/>
						<polyline fill="#554C21" points="772.053,1957.515 772.001,1957.585 772.053,1957.515 						"/>
						<polyline fill="#554C21" points="771.556,1957.521 771.556,1957.56 771.618,1957.645 771.556,1957.56 771.556,1957.521 						
							"/>
						<polyline fill="#554C21" points="771.917,1957.521 771.917,1957.521 771.917,1957.542 771.93,1957.582 771.917,1957.542 
							771.917,1957.521 						"/>
						<polyline fill="#554C21" points="772.001,1957.585 772.001,1957.585 772.006,1957.647 772.052,1957.667 772.067,1957.757 
							772.138,1957.828 772.142,1957.879 772.165,1957.914 772.176,1957.954 772.165,1957.914 772.142,1957.879 772.138,1957.828 
							772.067,1957.757 772.052,1957.667 772.006,1957.647 772.001,1957.585 						"/>
						<line fill="none" x1="772.001" y1="1957.585" x2="772.001" y2="1957.585"/>
						<polyline fill="#554C21" points="771.618,1957.645 771.615,1957.692 771.618,1957.645 						"/>
						<line fill="none" x1="771.618" y1="1957.645" x2="771.618" y2="1957.645"/>
						<polyline fill="#554C21" points="771.604,1957.696 771.562,1957.707 771.604,1957.696 						"/>
						<polyline fill="#554C21" points="771.562,1957.707 771.562,1957.707 771.566,1957.799 771.562,1957.707 						"/>
						<polyline fill="#554C21" points="771.566,1957.799 771.501,1957.812 771.458,1957.894 771.501,1957.812 771.566,1957.799 
													"/>
						<line fill="none" x1="771.566" y1="1957.799" x2="771.566" y2="1957.799"/>
						<polyline fill="#554C21" points="771.464,1957.979 771.464,1957.979 771.479,1958.002 771.499,1958.053 771.541,1958.058 
							771.549,1958.116 771.618,1958.127 771.683,1958.171 771.684,1958.198 771.754,1958.2 771.802,1958.214 771.972,1958.195 
							771.993,1958.161 771.998,1958.115 772.087,1958.109 772.095,1958.034 772.142,1958.034 772.095,1958.034 772.087,1958.109 
							771.998,1958.115 771.993,1958.161 771.972,1958.195 771.802,1958.214 771.754,1958.2 771.684,1958.198 771.683,1958.171 
							771.618,1958.127 771.549,1958.116 771.541,1958.058 771.499,1958.053 771.479,1958.002 771.464,1957.979 						"/>
						<polyline fill="#554C21" points="772.097,1958.033 772.083,1957.982 772.083,1957.982 772.097,1958.033 						"/>
						<polyline fill="#3A3C41" points="771.486,1957.911 771.56,1957.908 771.575,1957.973 771.601,1957.996 771.604,1958.115 
							771.629,1958.125 771.635,1958.077 771.691,1958.074 771.704,1958.171 771.69,1958.183 771.691,1958.198 771.765,1958.195 
							771.78,1958.171 771.816,1958.168 771.833,1958.195 771.843,1958.16 771.881,1958.146 771.909,1958.191 771.96,1958.185 
							771.929,1958.157 771.917,1958.093 771.986,1958.057 772.013,1958.103 772.04,1958.103 772.008,1958.05 772.008,1957.941 
							772.062,1957.87 772.136,1957.86 772.136,1957.832 772.062,1957.764 772.041,1957.672 772.001,1957.65 771.991,1957.664 
							771.943,1957.667 771.991,1957.733 771.991,1957.778 772.011,1957.789 772.007,1957.91 771.953,1957.917 771.951,1957.985 
							771.917,1958.016 771.898,1958.079 771.868,1958.116 771.81,1958.119 771.778,1958.085 771.773,1958.038 771.748,1958.033 
							771.734,1957.981 771.697,1957.961 771.691,1957.929 771.657,1957.914 771.649,1957.884 771.63,1957.873 771.629,1957.797 
							771.663,1957.792 771.646,1957.767 771.639,1957.747 771.639,1957.726 771.666,1957.698 771.616,1957.692 771.567,1957.712 
							771.566,1957.802 771.508,1957.819 771.464,1957.891 771.486,1957.911 						"/>
						<polyline fill="#3A3C41" points="771.486,1957.911 771.56,1957.908 771.575,1957.973 771.601,1957.996 771.604,1958.115 
							771.629,1958.125 771.635,1958.077 771.691,1958.074 771.704,1958.171 771.69,1958.183 771.691,1958.198 771.765,1958.195 
							771.78,1958.171 771.816,1958.168 771.833,1958.195 771.843,1958.16 771.881,1958.146 771.909,1958.191 771.96,1958.185 
							771.929,1958.157 771.917,1958.093 771.986,1958.057 772.013,1958.103 772.04,1958.103 772.008,1958.05 772.008,1957.941 
							772.062,1957.87 772.136,1957.86 772.136,1957.832 772.062,1957.764 772.041,1957.672 772.001,1957.65 771.991,1957.664 
							771.943,1957.667 771.991,1957.733 771.991,1957.778 772.011,1957.789 772.007,1957.91 771.953,1957.917 771.951,1957.985 
							771.917,1958.016 771.898,1958.079 771.868,1958.116 771.81,1958.119 771.778,1958.085 771.773,1958.038 771.748,1958.033 
							771.734,1957.981 771.697,1957.961 771.691,1957.929 771.657,1957.914 771.649,1957.884 771.63,1957.873 771.63,1957.797 
							771.663,1957.792 771.646,1957.767 771.639,1957.747 771.639,1957.726 771.666,1957.698 771.616,1957.692 771.567,1957.712 
							771.566,1957.802 771.508,1957.819 771.464,1957.891 771.486,1957.911 771.464,1957.891 771.508,1957.819 771.566,1957.802 
							771.567,1957.712 771.616,1957.692 771.666,1957.698 771.639,1957.726 771.639,1957.747 771.646,1957.767 771.663,1957.792 
							771.629,1957.797 771.63,1957.873 771.649,1957.884 771.657,1957.914 771.691,1957.929 771.697,1957.961 771.734,1957.981 
							771.748,1958.033 771.773,1958.038 771.778,1958.085 771.81,1958.119 771.868,1958.116 771.898,1958.079 771.917,1958.016 
							771.951,1957.985 771.953,1957.917 772.007,1957.91 772.011,1957.789 771.991,1957.778 771.991,1957.733 771.943,1957.667 
							771.991,1957.664 772.001,1957.651 772.041,1957.672 772.062,1957.764 772.136,1957.832 772.136,1957.86 772.062,1957.87 
							772.008,1957.941 772.008,1958.05 772.04,1958.103 772.013,1958.103 771.986,1958.057 771.917,1958.093 771.929,1958.157 
							771.96,1958.185 771.909,1958.191 771.881,1958.146 771.843,1958.16 771.833,1958.195 771.816,1958.168 771.78,1958.171 
							771.765,1958.195 771.691,1958.198 771.69,1958.183 771.704,1958.171 771.691,1958.074 771.635,1958.077 771.629,1958.125 
							771.604,1958.115 771.601,1957.996 771.575,1957.973 771.56,1957.908 771.486,1957.911 						"/>
						<path fill="#554C21" d="M771.774,1958.033l0.038-0.022l-0.003-0.042l-0.035-0.007l-0.015-0.013l0.041,0.006l0.05-0.005
							l0.018-0.008c-0.007,0.02-0.013,0.017-0.013,0.017l-0.028,0.014l0.002,0.041l0.082,0.01l-0.002,0.017l-0.089-0.02
							l-0.054,0.033L771.774,1958.033z"/>
						<path fill="#3A3C41" d="M771.774,1958.033L771.774,1958.033l0.038-0.022l-0.003-0.042l-0.035-0.007l-0.015-0.013l0.041,0.006
							l0.05-0.005l0.018-0.008c-0.007,0.017-0.012,0.017-0.012,0.017h-0.002l-0.027,0.014l0.002,0.041l0.082,0.01l-0.002,0.017
							l-0.089-0.02l-0.054,0.033L771.774,1958.033L771.774,1958.033L771.774,1958.033l-0.008,0.021l0.054-0.033l0.089,0.02
							l0.002-0.017l-0.082-0.01l-0.002-0.041l0.027-0.014h0.001c0,0,0.006,0,0.013-0.017l-0.018,0.008l-0.05,0.005l-0.041-0.006
							l0.015,0.013l0.035,0.007l0.003,0.042L771.774,1958.033L771.774,1958.033z"/>
						<path fill="#554C21" d="M771.648,1957.703c0.052-0.021,0.09-0.038,0.153-0.042c0.015-0.002,0.028-0.003,0.045-0.003
							c0.042,0,0.079,0.006,0.119,0.015l0,0c-0.04-0.008-0.077-0.015-0.119-0.015c-0.017,0-0.03,0-0.045,0.003
							C771.738,1957.665,771.7,1957.681,771.648,1957.703L771.648,1957.703z"/>
						<polygon fill="#554C21" points="771.678,1957.592 771.631,1957.592 771.57,1957.528 771.604,1957.532 771.648,1957.549 						
							"/>
						<polygon fill="#3A3C41" points="771.678,1957.592 771.678,1957.592 771.631,1957.592 771.57,1957.528 771.604,1957.532 
							771.648,1957.549 771.678,1957.592 771.678,1957.592 771.678,1957.592 771.648,1957.549 771.604,1957.532 771.57,1957.528 
							771.631,1957.592 						"/>
						<polygon fill="#554C21" points="771.938,1957.568 772.033,1957.494 772.001,1957.489 771.966,1957.521 771.923,1957.53 						
							"/>
						<polygon fill="#3A3C41" points="771.938,1957.568 771.938,1957.568 772.033,1957.494 772.001,1957.489 771.966,1957.521 
							771.923,1957.53 771.938,1957.568 771.938,1957.568 771.938,1957.568 771.923,1957.53 771.966,1957.521 772.001,1957.489 
							772.033,1957.494 						"/>
						<polygon fill="#554C21" points="771.881,1957.582 771.727,1957.586 771.727,1957.572 771.782,1957.565 771.792,1957.542 
							771.807,1957.542 771.82,1957.562 771.875,1957.573 						"/>
						<polygon fill="#3A3C41" points="771.881,1957.582 771.881,1957.582 771.727,1957.586 771.727,1957.572 771.782,1957.565 
							771.792,1957.542 771.807,1957.542 771.82,1957.562 771.875,1957.573 771.881,1957.582 771.881,1957.582 771.881,1957.582 
							771.875,1957.573 771.82,1957.562 771.807,1957.542 771.792,1957.542 771.782,1957.565 771.727,1957.572 771.727,1957.586 
													"/>
						<polygon fill="#554C21" points="771.871,1957.525 771.816,1957.525 771.813,1957.497 						"/>
						<polygon fill="#3A3C41" points="771.871,1957.525 771.871,1957.525 771.816,1957.525 771.813,1957.497 771.871,1957.525 
							771.871,1957.525 771.871,1957.525 771.813,1957.497 771.816,1957.525 						"/>
						<polygon fill="#554C21" points="771.782,1957.498 771.778,1957.528 771.727,1957.535 						"/>
						<polygon fill="#3A3C41" points="771.782,1957.498 771.782,1957.498 771.778,1957.528 771.727,1957.535 771.782,1957.498 
							771.782,1957.498 771.782,1957.498 771.727,1957.535 771.778,1957.528 						"/>
						<polygon fill="#554C21" points="771.488,1958.021 771.515,1957.955 771.491,1957.911 771.468,1957.978 						"/>
						<polygon fill="#554C21" points="771.488,1958.021 771.488,1958.021 771.515,1957.955 771.491,1957.911 771.468,1957.978 
							771.488,1958.021 771.488,1958.021 771.488,1958.021 771.468,1957.978 771.491,1957.911 771.515,1957.955 						"/>
						<polygon fill="#554C21" points="771.542,1958.057 771.575,1957.978 771.513,1958.043 						"/>
						<polygon fill="#554C21" points="771.542,1958.057 771.542,1958.057 771.575,1957.978 771.513,1958.043 771.542,1958.057 
							771.542,1958.057 771.542,1958.057 771.513,1958.043 771.575,1957.978 						"/>
						<polyline fill="#6E6F71" points="771.851,1957.71 771.851,1957.71 771.821,1957.73 771.821,1957.789 771.951,1957.79 
							771.991,1957.78 771.951,1957.79 771.821,1957.789 771.821,1957.73 771.821,1957.789 771.951,1957.79 771.991,1957.78 
							771.943,1957.818 771.909,1957.873 771.894,1957.876 771.843,1957.812 771.788,1957.812 771.759,1957.89 771.734,1957.888 
							771.678,1957.826 771.662,1957.794 771.808,1957.794 771.807,1957.726 771.773,1957.712 771.851,1957.71 						"/>
						<polygon fill="#A4A5A9" points="771.898,1957.806 771.898,1957.806 771.912,1957.822 771.898,1957.838 771.881,1957.822 
													"/>
						<polygon fill="#A4A5A9" points="771.727,1957.815 771.727,1957.815 771.745,1957.832 771.727,1957.848 771.711,1957.832 
													"/>
					</g>
				</g>
			</g>
		</g>
	</g>
</g>
</svg>
