<?xml version="1.0" encoding="utf-8"?>
<!-- Generator: Adobe Illustrator 17.0.0, SVG Export Plug-In . SVG Version: 6.00 Build 0)  -->
<!DOCTYPE svg PUBLIC "-//W3C//DTD SVG 1.1//EN" "http://www.w3.org/Graphics/SVG/1.1/DTD/svg11.dtd">
<svg version="1.1" id="Layer_1" xmlns="http://www.w3.org/2000/svg" xmlns:xlink="http://www.w3.org/1999/xlink" x="0px" y="0px"
	 width="61.842px" height="53.044px" viewBox="0 0 61.842 53.044" enable-background="new 0 0 61.842 53.044" xml:space="preserve">
<g>
	<path fill="#3D5A98" d="M-21.54,52.459c1.855,0,3.362-1.506,3.362-3.361V-5.108c0-1.856-1.507-3.361-3.362-3.361h-54.203
		c-1.857,0-3.364,1.505-3.364,3.361v54.206c0,1.856,1.507,3.361,3.364,3.361H-21.54z"/>
	<path fill="#FFFFFF" d="M-37.067,52.459V28.863h7.919l1.188-9.195h-9.106v-5.871c0-2.664,0.739-4.477,4.555-4.477l4.871-0.001
		V1.094c-0.842-0.113-3.731-0.362-7.095-0.362c-7.02,0-11.828,4.286-11.828,12.154v6.782h-7.938v9.195h7.938v23.596H-37.067z"/>
</g>
<g>
	<path opacity="0.5" fill="#D1D2D2" d="M61.842,26.108c0-1.072-0.424-2.037-1.186-2.723c-0.549-0.494-1.555-1.069-3.231-1.069
		H41.618c0.637-3.285,1.437-8.744,1.473-9.009c0.012-0.094,0.017-0.188,0.012-0.285C42.824,8.906,40.2,3.936,40.086,3.73
		c-0.142-0.267-0.372-0.475-0.653-0.592c-0.905-0.388-1.793-0.575-2.62-0.575c-2.201,0-3.29,1.315-3.404,1.459
		c-0.187,0.242-0.284,0.543-0.276,0.843c0.003,0.06,0.153,5.976,0.159,7.501c-0.418,1.753-6.87,12.136-8.325,13.373
		c-0.412,0.36-1.003,0.783-1.649,1.222c-0.213-0.431-0.657-0.722-1.163-0.722H20.26h-0.001H3.876c-0.362,0-0.719,0.153-0.967,0.422
		c-0.251,0.264-0.373,0.633-0.348,0.995l1.893,24.162c0.058,0.691,0.629,1.226,1.312,1.226h16.387c0.726,0,1.309-0.592,1.309-1.323
		v-2.324h0.828c0.204,0.017,0.783,0.388,1.164,0.631c0.877,0.555,1.967,1.265,3.255,1.265h21.614c3.701,0,6.188-2.805,6.188-5.429
		c0-0.84-0.262-1.615-0.737-2.241c1.576-1.062,2.514-2.734,2.514-4.346c0-0.841-0.262-1.621-0.739-2.24
		c1.575-1.059,2.517-2.733,2.517-4.343c0-0.792-0.241-1.59-0.743-2.24C60.904,29.395,61.842,27.717,61.842,26.108z M36.726,3.878
		L36.726,3.878L36.726,3.878L36.726,3.878L36.726,3.878z M36.315,3.91c-0.039,0-0.072,0.008-0.112,0.021l0,0
		C36.243,3.918,36.276,3.91,36.315,3.91L36.315,3.91z M35.785,4.017c-0.03,0.017-0.057,0.024-0.088,0.032h-0.004
		C35.728,4.041,35.748,4.033,35.785,4.017L35.785,4.017z M35.4,4.16c-0.026,0.01-0.057,0.026-0.079,0.035l0,0
		C35.343,4.187,35.374,4.17,35.4,4.16L35.4,4.16z M35.031,4.349c-0.017,0.009-0.027,0.019-0.047,0.027l0,0
		C35.003,4.368,35.014,4.358,35.031,4.349L35.031,4.349z M34.794,4.513c-0.018,0.009-0.033,0.025-0.047,0.033l0,0
		c0.014-0.008,0.029-0.024,0.05-0.033H34.794z M34.592,4.684L34.592,4.684c-0.011,0-0.011,0.011-0.011,0.011
		c-0.012,0-0.012,0-0.012,0C34.581,4.694,34.582,4.684,34.592,4.684z M34.468,4.802L34.468,4.802
		c0.012-0.001,0.012-0.001,0.021-0.012l0,0C34.48,4.801,34.48,4.801,34.468,4.802z"/>
	<g>
		<polygon fill="#5A739D" points="8.042,50.207 20.63,50.207 20.63,26.041 6.146,26.041 		"/>
		<path fill="#5A739D" d="M20.63,26.041v24.166H8.042L6.146,26.041H20.63 M20.63,23.675H6.146c-0.656,0-1.281,0.275-1.734,0.767
			c-0.443,0.48-0.668,1.125-0.616,1.779l1.899,24.174c0.095,1.217,1.121,2.177,2.348,2.177H20.63c1.305,0,2.365-1.06,2.365-2.364
			V26.041C22.996,24.733,21.935,23.675,20.63,23.675L20.63,23.675z"/>
	</g>
	<g>
		<path fill="#F1F6F7" d="M54.131,28.695c5.17,0,6.943-6.585,1.774-6.585c-3.542,0-17.433,0-17.433,0
			c0.632-2.509,1.797-10.513,1.797-10.513c-0.264-3.884-2.862-8.766-2.862-8.766c-3.087-1.299-4.478,0.486-4.478,0.486
			s0.162,6.174,0.162,7.6c0,1.428-7.058,12.843-8.783,14.309c-1.726,1.469-6.016,3.97-6.016,3.97
			c-5.119,12.355,1.173,17.366,1.173,17.366s1.277,0,3.312,0c1.227,0,2.745,1.9,4.412,1.9c7.743,0,18.903,0,21.612,0
			c5.169,0,6.946-6.59,1.776-6.59c5.17,0,6.946-6.585,1.776-6.585C57.526,35.288,59.301,28.695,54.131,28.695z"/>
	</g>
	<g>
		<path fill="#FFFFFF" d="M35.294,3.233L35.294,3.233c0.457,0,0.956,0.098,1.486,0.292c0.532,1.062,2.368,4.917,2.611,8.041
			c-0.133,0.904-1.188,8.039-1.766,10.331l-0.274,1.088h1.122h17.433c0.784,0,1.398,0.178,1.776,0.516
			c0.3,0.268,0.452,0.633,0.452,1.086c0,1.322-1.425,3.234-4.002,3.234v1.749c0.784,0,1.398,0.178,1.776,0.516
			c0.3,0.268,0.452,0.634,0.452,1.088c0,1.324-1.425,3.24-4.003,3.24v1.749c0.784,0,1.398,0.178,1.776,0.516
			c0.299,0.267,0.451,0.633,0.451,1.085c0,1.322-1.426,3.235-4.003,3.235v1.749c0.784,0,1.398,0.178,1.775,0.516
			c0.3,0.268,0.452,0.633,0.452,1.087c0,1.324-1.425,3.238-4.003,3.238H27.191c-0.64,0-1.365-0.468-2.067-0.92
			c-0.783-0.504-1.522-0.981-2.346-0.981h-2.973c-0.974-0.975-4.912-5.75-0.815-15.887c0.967-0.572,4.349-2.6,5.884-3.908
			c1.791-1.521,9.092-13.161,9.092-14.975c0-1.229-0.117-5.846-0.152-7.234C34.064,3.496,34.548,3.233,35.294,3.233 M35.294,2.359
			c-1.616,0-2.364,0.96-2.364,0.96s0.162,6.174,0.162,7.6c0,1.428-7.058,12.843-8.783,14.309c-1.726,1.469-6.016,3.97-6.016,3.97
			c-5.119,12.355,1.173,17.366,1.173,17.366s1.277,0,3.312,0c1.227,0,2.745,1.9,4.412,1.9c7.743,0,18.903,0,21.612,0
			c5.169,0,6.946-6.59,1.776-6.59c5.17,0,6.946-6.585,1.776-6.585c5.17,0,6.945-6.593,1.775-6.593c5.17,0,6.943-6.585,1.774-6.585
			c-3.542,0-17.433,0-17.433,0c0.632-2.509,1.797-10.513,1.797-10.513c-0.264-3.884-2.862-8.766-2.862-8.766
			C36.585,2.486,35.882,2.359,35.294,2.359L35.294,2.359z"/>
	</g>
	<path fill="#FFFFFF" stroke="#000000" stroke-width="0.1686" d="M45.669,22.413"/>
	<path fill="#E3E9EB" d="M35.21,2.364c0,0,1.924,7.142,1.924,8.168c0,1.021-6.33,9.508-5.036,10.806
		c1.295,1.297,6.376,0.772,6.376,0.772c0.423-2.044,1.797-10.513,1.797-10.513c-0.264-3.884-2.089-8.766-2.089-8.766
		C36.686,2.097,35.67,2.08,35.21,2.364z"/>
	<g>
		<path fill="#E3E9EB" d="M55.906,22.11h-7.157c3.227,0,1.82,6.585-1.408,6.585c3.229,0,1.816,6.593-1.406,6.593
			c3.223,0,1.811,6.585-1.408,6.585c3.219,0,1.814,6.59-1.414,6.59h5.691c5.169,0,6.946-6.59,1.776-6.59
			c5.17,0,6.946-6.585,1.776-6.585c5.17,0,6.945-6.593,1.775-6.593C59.301,28.695,61.075,22.11,55.906,22.11z"/>
	</g>
	<path fill="#5A739D" d="M35.291,2.353c0.592,0,1.292,0.134,2.117,0.479c0,0,2.599,4.882,2.862,8.766c0,0-1.165,8.004-1.797,10.513
		c0,0,13.891,0,17.433,0c5.169,0,3.396,6.585-1.774,6.585c5.17,0,3.395,6.593-1.775,6.593c5.17,0,3.394,6.585-1.776,6.585
		c5.17,0,3.393,6.59-1.776,6.59c-2.709,0-13.869,0-21.612,0c-1.667,0-3.186-1.9-4.412-1.9c-2.035,0-3.312,0-3.312,0
		s-6.292-5.011-1.173-17.366c0,0,4.29-2.501,6.016-3.97c1.726-1.466,8.783-12.881,8.783-14.309c0-1.426-0.162-7.6-0.162-7.6
		S33.675,2.353,35.291,2.353 M35.291,0L35.291,0c-2.045,0-3.553,1.009-4.224,1.863c-0.333,0.44-0.506,0.969-0.497,1.516
		c0,0.059,0.141,5.58,0.159,7.306c-0.717,2.064-6.612,11.54-7.959,12.754c-1.275,1.087-4.525,3.048-5.668,3.721
		c-0.442,0.256-0.797,0.659-0.991,1.137c-5.732,13.83,1.568,19.864,1.882,20.115c0.426,0.336,0.936,0.516,1.474,0.516h3.14
		c0.182,0.084,0.53,0.308,0.766,0.461c0.942,0.604,2.229,1.431,3.819,1.431h21.612c4.329,0,7.238-3.348,7.238-6.466
		c0-0.717-0.145-1.387-0.422-1.995c1.392-1.248,2.195-2.95,2.195-4.59c0-0.715-0.144-1.387-0.418-1.994
		c1.391-1.25,2.191-2.951,2.191-4.6c0-0.706-0.143-1.385-0.419-1.985c1.389-1.248,2.198-2.949,2.198-4.602
		c0-1.377-0.547-2.616-1.531-3.5c-0.683-0.601-1.921-1.332-3.931-1.332H41.353c0.592-3.293,1.224-7.575,1.257-7.816
		c0.02-0.17,0.028-0.333,0.016-0.505c-0.296-4.332-3.018-9.492-3.138-9.704c-0.252-0.481-0.661-0.86-1.164-1.077
		C37.282,0.226,36.262,0,35.291,0L35.291,0z"/>
	<path opacity="0.1" fill="#6B7888" d="M18.739,28.929v16.877c0.422,0.513,0.728,0.757,0.728,0.757s1.277,0,3.312,0V26.376
		C21.319,27.385,19.55,28.447,18.739,28.929z"/>
	<path fill="#5A739D" d="M18.739,26.041v24.166H4.255L2.353,26.041H18.739 M18.739,23.675H2.353c-0.65,0-1.282,0.275-1.726,0.767
		c-0.453,0.48-0.672,1.125-0.62,1.779l1.896,24.174c0.098,1.217,1.114,2.177,2.352,2.177h14.483c1.304,0,2.357-1.06,2.357-2.364
		V26.041C21.096,24.733,20.043,23.675,18.739,23.675L18.739,23.675z"/>
	<g>
		<polygon fill="#7689B5" points="4.255,50.207 18.739,50.207 18.739,26.041 2.353,26.041 		"/>
	</g>
	<g opacity="0.1">
		<g>
			<rect x="2.353" y="26.041" fill="#FFFFFF" width="16.386" height="3.066"/>
		</g>
		<path fill="#FFFFFF" d="M17.32,27.452v21.342H5.562L3.888,27.452H17.32 M18.739,26.041H2.353l1.902,24.166h14.483V26.041
			L18.739,26.041z"/>
	</g>
	<g>
		<path opacity="0.15" fill="#555655" d="M16.344,46.551c0-0.937-0.763-1.691-1.696-1.691c-0.94,0-1.701,0.755-1.701,1.691
			c0,0.945,0.761,1.706,1.701,1.706C15.582,48.257,16.344,47.496,16.344,46.551z"/>
		<g>
			<g>
				<path fill="#EBEEEF" d="M16.155,46.373c0-0.938-0.76-1.703-1.694-1.703c-0.939,0-1.701,0.765-1.701,1.703
					c0,0.934,0.763,1.7,1.701,1.7C15.395,48.073,16.155,47.308,16.155,46.373z"/>
			</g>
			<g>
				<path fill="#F1F6F7" d="M15.883,46.373c0-0.782-0.64-1.422-1.423-1.422c-0.783,0-1.417,0.64-1.417,1.422
					c0,0.778,0.634,1.416,1.417,1.416C15.244,47.789,15.883,47.151,15.883,46.373z"/>
			</g>
			<path opacity="0.5" fill="#FFFFFF" d="M14.759,46.088c0-0.419-0.339-0.758-0.755-0.758c-0.416,0-0.751,0.339-0.751,0.758
				c0,0.422,0.335,0.757,0.751,0.757C14.42,46.845,14.759,46.51,14.759,46.088z"/>
			<g>
				<path fill="#7689B5" d="M14.284,46.096c0-0.077-0.061-0.135-0.14-0.135c-0.072,0-0.137,0.058-0.137,0.135
					c0,0.07,0.064,0.131,0.137,0.131C14.222,46.227,14.284,46.166,14.284,46.096z"/>
				<path fill="#7689B5" d="M14.284,46.769c0-0.079-0.061-0.14-0.14-0.14c-0.072,0-0.137,0.061-0.137,0.14
					c0,0.076,0.064,0.138,0.137,0.138C14.222,46.906,14.284,46.845,14.284,46.769z"/>
				<path fill="#7689B5" d="M14.907,46.096c0-0.077-0.057-0.135-0.135-0.135c-0.074,0-0.132,0.058-0.132,0.135
					c0,0.07,0.058,0.131,0.132,0.131C14.85,46.227,14.907,46.166,14.907,46.096z"/>
				<path fill="#7689B5" d="M14.907,46.769c0-0.079-0.057-0.14-0.135-0.14c-0.074,0-0.132,0.061-0.132,0.14
					c0,0.076,0.058,0.138,0.132,0.138C14.85,46.906,14.907,46.845,14.907,46.769z"/>
			</g>
		</g>
	</g>
	<polygon fill="#E3E9EB" points="51.837,44.454 48.192,43.473 52.876,26.118 56.521,27.099 51.837,44.454 	"/>
	<polygon fill="#F1F6F7" points="45.448,42.075 43.606,41.669 46.609,27.775 48.451,28.179 45.448,42.075 	"/>
</g>
</svg>
