<?xml version="1.0" encoding="utf-8"?>
<!-- Generator: Adobe Illustrator 17.0.0, SVG Export Plug-In . SVG Version: 6.00 Build 0)  -->
<!DOCTYPE svg PUBLIC "-//W3C//DTD SVG 1.1//EN" "http://www.w3.org/Graphics/SVG/1.1/DTD/svg11.dtd">
<svg version="1.1" id="Layer_1" xmlns="http://www.w3.org/2000/svg" xmlns:xlink="http://www.w3.org/1999/xlink" x="0px" y="0px"
	 width="113.386px" height="26.847px" viewBox="0 0 113.386 26.847" enable-background="new 0 0 113.386 26.847"
	 xml:space="preserve">
<g>
	<g>
		<path fill="#EA5C27" d="M0,0h11.046c2.892,0,5.611,0.791,7.335,2.364c1.227,1.118,2.937,2.892,3.013,6.735
			c0.044,2.33-0.945,4.689-2.721,6.389c-1.292,1.238-3.357,2.271-5.549,2.365c-1.726,0.076-2.812-0.274-4.441-1.059l-0.007,9.83H0V0
			z M14.473,9.874c2.429-1.471,2.594-4.423,2.594-4.423s-3.758-2.236-6.481-0.057c-2.542,2.032-1.813,5.068-1.813,5.068
			S11.169,11.873,14.473,9.874z"/>
		<path fill="#EA5C27" d="M61.658,10.458c0,0-0.729-3.034,1.809-5.066c2.726-2.181,6.483,0.058,6.483,0.058S69.784,8.4,67.356,9.87
			C64.057,11.869,61.658,10.458,61.658,10.458z"/>
		<path fill="#46803C" d="M39.511,20.173v2.952c-1.894,2.483-4.617,3.722-8.171,3.722c-2.928,0-5.282-0.814-7.063-2.442
			c-1.782-1.627-2.672-3.77-2.672-6.429c0-2.527,0.818-4.59,2.455-6.185c1.638-1.594,3.76-2.39,6.372-2.39
			c1.333,0,2.568,0.223,3.708,0.671c1.137,0.446,2.121,1.105,2.95,1.971c0.83,0.868,1.441,1.876,1.833,3.022
			c0.393,1.148,0.588,2.547,0.588,4.199h-8.828c0.318,0.857,0.848,1.529,1.594,2.015c0.747,0.485,1.601,0.727,2.562,0.727
			C36.777,22.006,38.334,21.395,39.511,20.173z M30.167,16.312h4.07c-0.039-0.841-0.246-1.496-0.623-1.967
			c-0.378-0.471-0.872-0.707-1.477-0.707c-0.53,0-0.992,0.227-1.384,0.678C30.361,14.77,30.167,15.434,30.167,16.312z"/>
		<path fill="#46803C" d="M58.231,10.406v7.389c-1.717-0.822-3.294-1.233-4.73-1.233c-0.829,0-1.476,0.132-1.937,0.399
			c-0.461,0.265-0.693,0.631-0.693,1.098c0,1.082,1.003,1.623,3.01,1.623c1.714,0,3.163-0.294,4.351-0.881v7.303
			c-1.69,0.494-3.494,0.742-5.415,0.742c-3.376,0-5.987-0.812-7.833-2.435c-1.846-1.623-2.77-3.684-2.77-6.185
			c0-2.499,0.881-4.596,2.643-6.289c1.763-1.692,4.127-2.538,7.093-2.538C54.011,9.4,56.104,9.734,58.231,10.406z"/>
		<path fill="#46803C" d="M81.94,9.748v2.114c1.456-1.503,3.194-2.253,5.217-2.253c1.969,0,3.477,0.548,4.525,1.644
			c1.049,1.096,1.573,2.721,1.573,4.876v10.466h-8.169v-9.822c0-1.399-0.53-2.1-1.594-2.1c-0.515,0-1.03,0.182-1.553,0.547v11.375
			h-8.645V9.748H81.94z"/>
		<path fill="#46803C" d="M96.459,16.675v-5.065c2.444-1.334,5.215-2,8.309-2c2.948,0,5.12,0.63,6.52,1.889
			c1.398,1.26,2.098,3.186,2.098,5.779v9.318h-8.646v-1.259c-1.277,0.933-2.681,1.4-4.208,1.4c-1.289,0-2.362-0.418-3.219-1.253
			c-0.857-0.834-1.288-1.885-1.288-3.156c0-1.444,0.532-2.623,1.595-3.532c1.064-0.91,2.455-1.364,4.17-1.364
			c1.006,0,1.99,0.129,2.95,0.391c0-0.783-0.301-1.394-0.901-1.833c-0.603-0.438-1.438-0.657-2.51-0.657
			C99.744,15.331,98.119,15.779,96.459,16.675z M104.74,22.873v-2.35c-0.522-0.178-0.993-0.266-1.411-0.266
			c-0.523,0-0.941,0.134-1.261,0.406c-0.317,0.27-0.474,0.624-0.474,1.062c0,0.457,0.169,0.84,0.51,1.148
			c0.339,0.31,0.771,0.46,1.295,0.46C103.931,23.333,104.377,23.183,104.74,22.873z"/>
		<path fill="#46803C" d="M66.185,12.503c3.234-1.365,3.537-2.423,3.895-2.755v16.847h-8.647V12.992
			C61.917,13.13,64.325,13.29,66.185,12.503z"/>
		<g>
			<path fill="#EA5C27" d="M75.628,7.398V6.912h-0.013c-0.137,0.197-0.276,0.336-0.419,0.419c-0.145,0.083-0.328,0.125-0.549,0.125
				c-0.316,0-0.578-0.103-0.785-0.308c-0.205-0.204-0.31-0.495-0.31-0.87V4.457h0.313v1.816c0,0.273,0.074,0.487,0.225,0.643
				c0.149,0.156,0.344,0.233,0.582,0.233c0.204,0,0.379-0.047,0.523-0.141c0.143-0.094,0.286-0.256,0.432-0.485V4.457h0.314v2.941
				H75.628z"/>
			<path fill="#EA5C27" d="M77.404,3.48v0.976h0.825v0.255h-0.825v1.749c0,0.281,0.023,0.466,0.069,0.555
				c0.045,0.089,0.169,0.133,0.369,0.133c0.152,0,0.332-0.048,0.537-0.144v0.301c-0.206,0.1-0.41,0.15-0.608,0.15
				c-0.194,0-0.356-0.056-0.485-0.167c-0.131-0.11-0.194-0.264-0.194-0.461V4.712h-0.793V4.457h0.793V3.756l0.214-0.275H77.404z"/>
			<path fill="#EA5C27" d="M81.279,5.818H78.96c-0.006,0.051-0.009,0.103-0.009,0.154c0,0.328,0.117,0.607,0.352,0.834
				c0.234,0.228,0.513,0.342,0.832,0.342c0.372,0,0.737-0.147,1.093-0.438v0.356c-0.336,0.26-0.715,0.39-1.131,0.39
				c-0.426,0-0.775-0.148-1.053-0.442c-0.277-0.293-0.416-0.667-0.416-1.122c0-0.431,0.128-0.787,0.385-1.07
				c0.255-0.282,0.578-0.423,0.966-0.423c0.363,0,0.671,0.127,0.923,0.382C81.153,5.035,81.279,5.381,81.279,5.818z M79.002,5.565
				h1.906c-0.11-0.574-0.422-0.859-0.93-0.859c-0.241,0-0.45,0.074-0.626,0.225C79.175,5.081,79.06,5.293,79.002,5.565z"/>
			<path fill="#EA5C27" d="M82.146,4.457v0.518h0.012c0.239-0.383,0.552-0.576,0.938-0.576c0.449,0,0.766,0.236,0.949,0.707
				c0.277-0.471,0.617-0.707,1.021-0.707c0.304,0,0.55,0.108,0.737,0.326c0.188,0.218,0.281,0.506,0.281,0.867v1.807h-0.312V5.729
				c0-0.318-0.067-0.568-0.202-0.751c-0.134-0.182-0.322-0.272-0.564-0.272c-0.18,0-0.339,0.055-0.473,0.162
				c-0.135,0.109-0.272,0.284-0.414,0.524v2.005H83.8V5.723c0-0.327-0.068-0.577-0.209-0.754c-0.14-0.175-0.326-0.263-0.561-0.263
				c-0.341,0-0.637,0.209-0.885,0.629v2.063H81.83V4.457H82.146z"/>
			<path fill="#EA5C27" d="M89.334,5.818h-2.317c-0.007,0.051-0.011,0.103-0.011,0.154c0,0.328,0.117,0.607,0.352,0.834
				c0.233,0.228,0.512,0.342,0.832,0.342c0.372,0,0.737-0.147,1.093-0.438v0.356c-0.336,0.26-0.714,0.39-1.132,0.39
				c-0.423,0-0.774-0.148-1.051-0.442c-0.278-0.293-0.415-0.667-0.415-1.122c0-0.431,0.126-0.787,0.383-1.07
				c0.255-0.282,0.576-0.423,0.965-0.423c0.364,0,0.673,0.127,0.924,0.382C89.208,5.035,89.334,5.381,89.334,5.818z M87.058,5.565
				h1.905c-0.11-0.574-0.421-0.859-0.931-0.859c-0.241,0-0.449,0.074-0.624,0.225C87.231,5.081,87.114,5.293,87.058,5.565z"/>
			<path fill="#EA5C27" d="M90.265,2.931v4.467H89.95V2.931H90.265z"/>
			<path fill="#EA5C27" d="M91.419,4.457v3.268c0,0.369-0.078,0.658-0.234,0.867c-0.155,0.209-0.369,0.313-0.64,0.313l-0.07-0.268
				c0.224-0.005,0.386-0.078,0.481-0.221c0.098-0.143,0.146-0.375,0.146-0.697V4.457H91.419z M91.419,2.931v0.537h-0.316V2.931
				H91.419z"/>
			<path fill="#EA5C27" d="M94.735,5.818h-2.318c-0.006,0.051-0.01,0.103-0.01,0.154c0,0.328,0.118,0.607,0.352,0.834
				c0.235,0.228,0.512,0.342,0.833,0.342c0.371,0,0.737-0.147,1.093-0.438v0.356c-0.338,0.26-0.715,0.39-1.132,0.39
				c-0.425,0-0.774-0.148-1.052-0.442c-0.277-0.293-0.417-0.667-0.417-1.122c0-0.431,0.129-0.787,0.386-1.07
				c0.254-0.282,0.576-0.423,0.963-0.423c0.366,0,0.674,0.127,0.925,0.382C94.61,5.035,94.735,5.381,94.735,5.818z M92.459,5.565
				h1.905c-0.111-0.574-0.422-0.859-0.932-0.859c-0.239,0-0.447,0.074-0.625,0.225C92.632,5.081,92.517,5.293,92.459,5.565z"/>
			<path fill="#EA5C27" d="M95.612,4.457v0.511h0.014c0.244-0.38,0.568-0.569,0.969-0.569c0.332,0,0.599,0.107,0.797,0.32
				c0.197,0.213,0.297,0.508,0.297,0.886v1.793h-0.312V5.723c0-0.678-0.268-1.017-0.8-1.017c-0.392,0-0.712,0.209-0.964,0.629v2.063
				H95.3V4.457H95.612z"/>
			<path fill="#EA5C27" d="M100.795,6.887v0.262c-0.271,0.205-0.469,0.308-0.594,0.308c-0.073,0-0.122-0.024-0.151-0.072
				c-0.027-0.048-0.048-0.146-0.061-0.293c-0.308,0.243-0.616,0.365-0.921,0.365c-0.223,0-0.409-0.073-0.562-0.218
				c-0.152-0.145-0.23-0.321-0.23-0.528c0-0.32,0.148-0.572,0.444-0.756c0.296-0.184,0.719-0.291,1.269-0.318V5.262
				c0-0.401-0.218-0.602-0.652-0.602c-0.276,0-0.577,0.125-0.897,0.374V4.712c0.332-0.209,0.647-0.313,0.948-0.313
				c0.266,0,0.488,0.065,0.66,0.196c0.172,0.131,0.258,0.321,0.258,0.571v1.832c0,0.101,0.025,0.15,0.07,0.15
				C100.436,7.148,100.576,7.061,100.795,6.887z M99.989,6.816V5.898c-0.402-0.016-0.737,0.056-1.002,0.212
				c-0.266,0.157-0.398,0.357-0.398,0.6c0,0.137,0.057,0.252,0.166,0.346c0.111,0.094,0.248,0.141,0.416,0.141
				C99.439,7.197,99.712,7.07,99.989,6.816z"/>
			<path fill="#EA5C27" d="M103.579,4.047h0.48v3.351h-0.48V4.047z"/>
			<path fill="#EA5C27" d="M105.911,7.437l-0.293-0.348c0.246-0.156,0.463-0.347,0.648-0.569c0.186-0.223,0.309-0.453,0.372-0.688
				c-0.153,0.095-0.331,0.142-0.536,0.142c-0.256,0-0.475-0.095-0.658-0.286c-0.184-0.19-0.274-0.418-0.274-0.686
				c0-0.278,0.098-0.514,0.293-0.707c0.194-0.193,0.433-0.291,0.715-0.291c0.315,0,0.575,0.115,0.777,0.343
				c0.2,0.228,0.302,0.522,0.302,0.88c0,0.406-0.127,0.816-0.379,1.231C106.626,6.874,106.304,7.2,105.911,7.437z M106.731,5.354
				c0.02-0.128,0.028-0.211,0.028-0.249c0-0.194-0.054-0.352-0.161-0.475c-0.108-0.124-0.246-0.185-0.416-0.185
				c-0.154,0-0.283,0.052-0.385,0.157c-0.102,0.104-0.151,0.237-0.151,0.395c0,0.145,0.054,0.271,0.164,0.377
				c0.11,0.104,0.242,0.158,0.395,0.158C106.385,5.532,106.561,5.473,106.731,5.354z"/>
			<path fill="#EA5C27" d="M108.392,4.047h0.48v3.351h-0.48V4.047z"/>
			<path fill="#EA5C27" d="M110.799,4.047h0.479v3.351h-0.479V4.047z"/>
		</g>
	</g>
</g>
</svg>
